<?xml version="1.0" encoding="UTF-8"?>
<svg version="1.1" xmlns="http://www.w3.org/2000/svg" width="716" height="657">
<path d="M0 0 C2.86317173 0.03106603 5.72578777 0.04097783 8.58911133 0.046875 C41.11135547 0.18066425 41.11135547 0.18066425 50.37231445 7.7578125 C56.33074664 14.24983563 57.10475912 23.92985427 58.56762695 32.28125 C58.69202148 32.96960938 58.81641602 33.65796875 58.94458008 34.3671875 C62.12314589 52.22273752 64.1766508 70.30671531 66.56762695 88.28125 C66.79547025 89.99284138 67.02333483 91.70442992 67.2512207 93.41601562 C67.59918223 96.02964646 67.94714018 98.64327777 68.29507446 101.25691223 C68.65671167 103.97336441 69.01840878 106.6898086 69.38012695 109.40625 C69.50248718 110.32530121 69.62484741 111.24435242 69.75091553 112.19125366 C74.64008314 148.90198806 79.60739192 185.6017433 84.76513672 222.27575684 C86.53247933 234.84423287 88.27803686 247.41406744 89.9375 259.99731445 C91.7120598 273.43804791 93.53899636 286.87167424 95.36207962 300.30589676 C95.62530867 302.24574202 95.8884456 304.18559977 96.15158081 306.12545776 C96.49032081 308.62262697 96.82915116 311.11978392 97.16807556 313.6169281 C97.49737185 316.04377657 97.8263656 318.47066611 98.15504456 320.89759827 C98.9164043 326.51384325 99.68367152 332.12910302 100.46801758 337.7421875 C100.60735214 338.74507813 100.74668671 339.74796875 100.89024353 340.78125 C101.14720078 342.62794706 101.40641773 344.47433188 101.66847229 346.3203125 C104.24490538 364.88896948 104.24490538 364.88896948 99.56762695 371.28125 C94.49466928 376.51654232 89.83873199 377.46418374 82.75512695 378.53125 C81.80831055 378.69109375 80.86149414 378.8509375 79.88598633 379.015625 C71.72274297 380.36399279 63.59992111 381.419829 55.31762695 381.53125 C54.1574707 381.55703125 52.99731445 381.5828125 51.80200195 381.609375 C46.72643656 381.09446257 44.30514647 379.07022437 40.88012695 375.40625 C37.10921419 370.31042195 36.17627806 365.70079133 35.5949707 359.48046875 C35.51447983 358.6690593 35.43398895 357.85764984 35.35105896 357.02165222 C33.97938907 342.6924128 33.02254519 328.3220547 31.97485352 313.96612549 C31.3590203 305.53295596 30.73191917 297.10093309 30.06632423 288.67152596 C29.78090493 285.05157565 29.50399661 281.4313167 29.24310303 277.80950928 C28.9772655 274.12818771 28.68963756 270.44913369 28.38731194 266.7706356 C28.27737912 265.38931381 28.17481828 264.00738172 28.08032417 262.62491798 C27.35303379 251.50138495 27.35303379 251.50138495 21.56762695 242.28125 C18.23512193 241.17041499 15.63723738 241.11365415 12.13012695 241.09375 C10.99704102 241.07957031 9.86395508 241.06539062 8.6965332 241.05078125 C5.65446128 241.27485396 4.05562839 241.57567435 1.56762695 243.28125 C-4.58697329 252.07353606 -3.70159847 262.52735615 -4.1159668 272.92578125 C-4.17593299 274.36739503 -4.23624835 275.80899432 -4.29689026 277.25057983 C-4.42455 280.29413865 -4.55053835 283.33775997 -4.67529297 286.38143921 C-4.9978059 294.22615104 -5.33906607 302.07006669 -5.6784668 309.9140625 C-5.71158337 310.6805908 -5.74469994 311.4471191 -5.77882004 312.23687553 C-6.90028016 338.18917667 -6.90028016 338.18917667 -7.32522583 346.3621521 C-7.42855952 348.393773 -7.51945044 350.42601505 -7.60986328 352.45825195 C-8.13642179 362.09837322 -9.19666058 370.54243297 -15.8347168 377.90625 C-22.30380004 383.47377397 -31.00732699 382.38367852 -38.99487305 381.96875 C-39.96489258 381.91952393 -40.93491211 381.87029785 -41.93432617 381.81958008 C-64.6933118 380.55498196 -64.6933118 380.55498196 -70.43237305 375.28125 C-74.35885425 370.81318519 -74.60400092 366.73190323 -74.57299805 360.98828125 C-74.56916107 359.91632256 -74.56916107 359.91632256 -74.56524658 358.82270813 C-74.49697535 351.82940305 -73.89659982 344.924012 -73.18237305 337.96875 C-72.89914982 335.07346867 -72.62388468 332.17746059 -72.3503418 329.28125 C-72.2766185 328.50404099 -72.2028952 327.72683197 -72.12693787 326.92607117 C-71.2187923 317.21148161 -70.49092558 307.48268929 -69.74655151 297.75445557 C-68.47778507 281.1904919 -67.15290538 264.63544981 -65.61987305 248.09375 C-61.51043114 203.71167119 -57.66298544 159.30326182 -53.93331909 114.88769531 C-53.72962686 112.46282364 -53.52518101 110.03801511 -53.31985474 107.61328125 C-52.11237415 93.32864208 -51.04007888 79.04140144 -50.15287781 64.73336792 C-47.29139144 19.67758434 -47.29139144 19.67758434 -33.80737305 6.46875 C-24.07995985 -1.22729193 -11.76442728 -0.12836473 0 0 Z M0.56762695 73.28125 C-0.29298385 75.80955948 -0.29298385 75.80955948 -0.5925293 78.625 C-0.73964355 79.69363281 -0.88675781 80.76226562 -1.03833008 81.86328125 C-1.72628773 87.83069584 -2.35298313 93.7965117 -2.86987305 99.78125 C-2.9310733 100.47448364 -2.99227356 101.16771729 -3.05532837 101.88195801 C-4.36967169 116.91227602 -5.25575726 131.96942154 -6.11987305 147.03125 C-6.18649139 148.19019775 -6.25310974 149.34914551 -6.32174683 150.54321289 C-6.51127368 153.86719513 -6.69739978 157.19134319 -6.8815918 160.515625 C-6.93768616 161.51426575 -6.99378052 162.51290649 -7.05157471 163.54180908 C-7.14953889 165.35006309 -7.24120849 167.1586759 -7.32479858 168.96765137 C-7.41568964 170.92244084 -7.53212831 172.87601736 -7.65429688 174.82910156 C-7.58106201 175.63831055 -7.50782715 176.44751953 -7.43237305 177.28125 C0.3147475 182.44599703 11.95462366 180.26712705 20.7043457 178.94921875 C23.74511125 178.41654545 23.74511125 178.41654545 26.56762695 176.28125 C28.18318233 165.62955639 25.87939881 153.57074117 24.88012695 142.90625 C24.79281311 141.95746979 24.70549927 141.00868958 24.61553955 140.03115845 C23.30069929 125.81290666 21.74736616 111.63303805 19.94262695 97.46875 C19.83866608 96.64264221 19.7347052 95.81653442 19.62759399 94.96539307 C19.33076686 92.62568993 19.02534892 90.28730449 18.71606445 87.94921875 C18.6297023 87.27194229 18.54334015 86.59466583 18.45436096 85.89686584 C17.73093491 80.58676903 16.96997777 75.30686785 13.88012695 70.84375 C8.63472685 67.29956074 4.30957972 68.63300839 0.56762695 73.28125 Z " fill="#3C9DE0" transform="translate(356.432373046875,148.71875)"/>
<path d="M0 0 C31.20460591 6.14248394 63.71615361 24.09489365 89 43 C89.94939453 43.68255859 89.94939453 43.68255859 90.91796875 44.37890625 C104.55855031 54.94809858 109.07807836 73.46046928 111.55859375 89.64453125 C112.21910937 95.22742899 112.26244811 100.82167802 112.3125 106.4375 C112.34150391 107.51837891 112.37050781 108.59925781 112.40039062 109.71289062 C112.46559355 117.98363131 111.051494 124.14075759 105.875 130.6875 C95.7511641 138.8305854 78.53995403 149.676301 65.15234375 149.38671875 C61.6043621 148.7492411 60.09799709 146.79732946 58 144 C56.10668997 140.83297806 55.69587892 138.30950317 55.5078125 134.640625 C55.44207031 133.60679687 55.37632812 132.57296875 55.30859375 131.5078125 C55.18709978 129.35194084 55.07241196 127.19567384 54.96484375 125.0390625 C54.47416282 117.57700909 53.3764965 111.72578924 48.1875 106 C44.90843847 104.50100045 42.56617473 104.5695996 39 105 C30.70934128 108.62716319 26.68073293 117.90600744 23.375 125.875 C7.46580539 170.47290621 6.76348456 223.92001686 12.8125 270.625 C12.96541504 271.80852051 13.11833008 272.99204102 13.27587891 274.21142578 C14.7236955 284.15424536 17.45589206 293.51056907 22 302.5 C22.474375 303.4590625 22.94875 304.418125 23.4375 305.40625 C25.53217912 308.88341734 27.55543917 311.42977862 31.375 312.9375 C35.14509861 313.02726425 36.90912739 312.17018715 40 310 C47.4394958 299.56473408 47.75866819 286.01944415 48.58129883 273.72607422 C49.80273795 256.00204056 49.80273795 256.00204056 56.6875 249.4375 C62.92755743 246.72955055 68.80534512 248.76310754 74.8828125 251.109375 C76.96866089 251.97738253 79.04935834 252.85786085 81.125 253.75 C82.17042969 254.18054688 83.21585938 254.61109375 84.29296875 255.0546875 C99.80689854 261.60544926 99.80689854 261.60544926 103 269 C106.48551338 280.09628625 104.87466029 291.67973005 103.8125 303.0625 C103.7150499 304.10905762 103.7150499 304.10905762 103.6156311 305.17675781 C101.10072215 331.56958685 97.0973882 363.3976622 76 382 C66.54166076 388.6572157 57.57217636 391.1928582 46.125 389.4375 C28.81800954 385.22769151 12.13379218 374.77512402 -1 363 C-1.97324219 362.14664062 -2.94648438 361.29328125 -3.94921875 360.4140625 C-39.09361411 329.24795852 -54.18302445 286.03765761 -57.76855469 239.90087891 C-60.42855082 195.06815929 -56.78123947 143.73045578 -27.25 107.34375 C-24.68244065 102.52957622 -26.01839928 97.44033318 -27.06787109 92.30688477 C-32.42628747 65.25142308 -32.19714577 27.45363891 -18 3 C-14.14128842 -2.39230208 -5.88407351 -0.7564697 0 0 Z " fill="#3C9DDF" transform="translate(172,121)"/>
<path d="M0 0 C4.69347486 4.59238463 6.39930109 9.12465381 8.125 15.375 C8.50338013 16.69685303 8.50338013 16.69685303 8.8894043 18.04541016 C12.38201191 30.55465916 14.51611359 42.99371987 15 56 C15.07927734 57.69962891 15.07927734 57.69962891 15.16015625 59.43359375 C15.35518259 67.17529162 14.64599566 74.53217154 13.5625 82.1875 C13.42956543 83.13850586 13.29663086 84.08951172 13.15966797 85.06933594 C12.60601809 88.96730281 12.02745289 92.84700233 11.33203125 96.72265625 C10.53032795 102.03308407 10.53739541 105.03361859 13.75 109.4375 C14.71486328 110.63632813 14.71486328 110.63632813 15.69921875 111.859375 C21.1191435 119.25771032 24.95919898 127.79227452 29 136 C29.31888184 136.64001953 29.63776367 137.28003906 29.96630859 137.93945312 C34.37686947 147.015882 36.56682429 156.73653319 38.875 166.5 C39.03278931 167.16297089 39.19057861 167.82594177 39.35314941 168.50900269 C43.58610881 186.48294078 43.58610881 186.48294078 39 195 C36.044656 198.05725241 33.21860545 198.83125578 29 199 C22.92425898 196.79303763 19.30008396 192.47504507 15.0625 187.8125 C14.38509766 187.08224609 13.70769531 186.35199219 13.00976562 185.59960938 C9.19531312 181.47063825 5.49448195 177.27678611 1.93139648 172.9284668 C0.15801437 171.15777468 -1.57850706 169.81745662 -3.62071228 168.37947083 C-4.25297194 167.93280972 -4.88523161 167.48614862 -5.53665066 167.02595234 C-6.26100858 166.51810593 -6.26100858 166.51810593 -7 166 C-6.99723462 166.92876135 -6.99446924 167.8575227 -6.99162006 168.81442833 C-6.92496417 191.43341004 -6.87569555 214.05237897 -6.84456348 236.67143822 C-6.82910734 247.60993317 -6.80804175 258.54836316 -6.77368164 269.48681641 C-6.74374096 279.02291713 -6.72441589 288.55897079 -6.71773452 298.09511721 C-6.71383018 303.14248457 -6.70468049 308.18971733 -6.68280983 313.23704147 C-6.66237094 317.99269769 -6.65618113 322.7481645 -6.66067696 327.50386047 C-6.65985506 329.24445756 -6.65393368 330.98506131 -6.64238358 332.72562027 C-6.49949411 355.3794026 -6.49949411 355.3794026 -14.9453125 364.140625 C-25.28039092 373.49328151 -38.54930776 379.96600866 -51 386.0625 C-52.7325 386.91521484 -52.7325 386.91521484 -54.5 387.78515625 C-59.1881121 389.41239159 -63.46723398 389.75298449 -68.3125 388.3125 C-71.70123354 385.67681836 -73.25208852 382.13197479 -74 378 C-74.09423608 375.24959647 -74.13555159 372.53084565 -74.1171875 369.78125 C-74.11411591 368.98078247 -74.11104431 368.18031494 -74.10787964 367.35559082 C-74.05243016 360.13238446 -73.70148287 352.94042077 -73.25921631 345.73147583 C-69.48057477 282.90790881 -69.1319346 219.97190895 -70.4375 157.0625 C-70.45696686 156.11751648 -70.47643372 155.17253296 -70.49649048 154.19891357 C-70.62065686 148.4640467 -70.79066789 142.73234793 -71 137 C-71.0245929 136.2353241 -71.04918579 135.47064819 -71.07452393 134.68280029 C-71.14997582 132.47375927 -71.24540339 130.2665383 -71.34765625 128.05859375 C-71.40058838 126.81263428 -71.45352051 125.5666748 -71.50805664 124.28295898 C-72.03926393 120.73797416 -72.81197094 118.81984968 -75 116 C-83.19706401 109.98099776 -94.89190988 107.50099948 -104.49487305 104.45581055 C-121.48421084 99.03637646 -121.48421084 99.03637646 -126 91 C-127.5523077 87.60593071 -128.36662609 84.51753514 -128.8515625 80.82421875 C-128.98103271 79.83856934 -129.11050293 78.85291992 -129.24389648 77.83740234 C-132.72171289 49.0925034 -132.72171289 49.0925034 -129.16015625 42.6953125 C-127 40 -127 40 -124 38 C-117.64105039 37.31145132 -112.08228571 38.09183193 -106 40 C-99.73054653 40.95303167 -95.8149799 37.8649427 -90.75 34.625 C-88.95842749 33.51597044 -87.16542924 32.40924116 -85.37109375 31.3046875 C-84.02120361 30.4688916 -84.02120361 30.4688916 -82.64404297 29.61621094 C-22.93646773 -6.88094032 -22.93646773 -6.88094032 0 0 Z " fill="#3C9DDF" transform="translate(562,121)"/>
<path d="M0 0 C26.07203403 5.13216064 53.32244612 18.9476154 75 34 C74.01 34.495 74.01 34.495 73 35 C70.97250996 34.05698138 68.97711651 33.04451438 67 32 C65.73299328 31.46992576 64.46214585 30.94893198 63.1875 30.4375 C60 29 60 29 59 27 C57.28547478 26.01858212 55.5261826 25.11484284 53.75 24.25 C52.6775 23.72664063 51.605 23.20328125 50.5 22.6640625 C45.02249479 20.05980221 39.52090546 17.51112152 34 15 C34 14.34 34 13.68 34 13 C33.14921875 12.89300781 32.2984375 12.78601563 31.421875 12.67578125 C27.7228161 11.94525934 24.70017401 10.70174304 21.25 9.1875 C15.43977236 6.74891155 9.65046647 4.99099343 3.5 3.625 C2.75911133 3.45766357 2.01822266 3.29032715 1.25488281 3.11791992 C-4.23938214 1.96407463 -9.46269289 0.93482644 -14.80078125 3.17578125 C-17.43983112 5.36483327 -18.13983503 6.94385606 -19.1875 10.1875 C-19.50976562 11.1775 -19.83203125 12.1675 -20.1640625 13.1875 C-22.01382933 19.41101458 -23.34575252 25.62541244 -24.5625 32 C-24.68955322 32.66475342 -24.81660645 33.32950684 -24.94750977 34.0144043 C-26.32907717 41.45072974 -27.17460464 48.68016061 -27.125 56.25 C-27.12161621 57.01143311 -27.11823242 57.77286621 -27.11474609 58.55737305 C-27.06164268 64.64635811 -26.88342279 70.72893657 -26.625 76.8125 C-26.57883545 78.07465332 -26.57883545 78.07465332 -26.53173828 79.36230469 C-26.31901597 83.7138441 -25.76408967 86.97546083 -24 91 C-22.83375615 96.65179714 -21.77321194 102.38285213 -24.2890625 107.75 C-25.48546387 109.39439307 -26.73248627 111.00296138 -28.0234375 112.57421875 C-33.12435597 118.83443687 -36.27857794 126.36605162 -39.1328125 133.85546875 C-40.16863493 136.41702962 -41.54325424 138.65653942 -43 141 C-44.98500651 144.89649426 -46.17417204 147.90276719 -46.0625 152.25 C-46 156 -46 156 -48 159 C-48.49964836 160.66549455 -48.99227129 162.33373468 -49.43359375 164.015625 C-50 166 -50 166 -50.72265625 167.859375 C-56.03895354 181.64434687 -55.46923445 197.87325112 -55.5 212.4375 C-55.50400818 213.37079132 -55.50801636 214.30408264 -55.512146 215.26565552 C-55.52759773 230.17106106 -54.31803939 244.69909004 -52.125 259.4375 C-51.9902124 260.34426483 -51.8554248 261.25102966 -51.71655273 262.18527222 C-51.32717851 264.74959882 -50.92301702 267.31083117 -50.5078125 269.87109375 C-50.38685211 270.62430908 -50.26589172 271.37752441 -50.14126587 272.15356445 C-49.48195208 276.00237584 -48.55778422 279.42337605 -47 283 C-46.64430525 284.76266508 -46.33264146 286.5347119 -46.0625 288.3125 C-45.46356984 291.89642079 -44.69640201 295.07839239 -43.3125 298.4375 C-41.99685424 302.00853848 -41.89935996 302.63898512 -43 306 C-62.95245101 250.63994847 -66.50382246 184.25865246 -41 130 C-37.10772179 121.94131211 -32.91428089 114.32295324 -27.25 107.34375 C-24.68244065 102.52957622 -26.01839928 97.44033318 -27.06787109 92.30688477 C-32.42628747 65.25142308 -32.19714577 27.45363891 -18 3 C-14.14128842 -2.39230208 -5.88407351 -0.7564697 0 0 Z " fill="#5399C6" transform="translate(172,121)"/>
<path d="M0 0 C2.86317173 0.03106603 5.72578777 0.04097783 8.58911133 0.046875 C41.11135547 0.18066425 41.11135547 0.18066425 50.37231445 7.7578125 C56.32506798 14.24364843 57.11739881 23.93327006 58.56762695 32.28125 C58.70265625 33.0546875 58.83768555 33.828125 58.97680664 34.625 C59.92434021 40.16514687 60.75670408 45.71972381 61.56762695 51.28125 C61.85147405 53.19010522 62.13532844 55.09895935 62.41918945 57.0078125 C62.69862301 58.91134286 62.97728573 60.81498657 63.25512695 62.71875 C63.38669189 63.61311768 63.51825684 64.50748535 63.65380859 65.42895508 C63.77361084 66.26579834 63.89341309 67.1026416 64.0168457 67.96484375 C64.12343506 68.70275146 64.23002441 69.44065918 64.33984375 70.20092773 C64.56762695 72.28125 64.56762695 72.28125 64.56762695 76.28125 C63.90762695 76.28125 63.24762695 76.28125 62.56762695 76.28125 C60.21291685 68.10255692 59.19912492 60.17918598 58.56762695 51.71875 C58.02767907 44.56186112 57.31451791 37.82824108 55.27856445 30.9140625 C54.47630674 27.94306414 54.08982306 25.01891636 53.69262695 21.96875 C52.8557516 16.46413023 51.08251457 13.53611396 47.56762695 9.28125 C47.56762695 8.62125 47.56762695 7.96125 47.56762695 7.28125 C46.57762695 7.28125 45.58762695 7.28125 44.56762695 7.28125 C44.56762695 6.62125 44.56762695 5.96125 44.56762695 5.28125 C33.15966899 2.08949885 20.24310298 3.0949646 8.50219727 3.09594727 C5.57333978 3.09375428 2.64485604 3.0755155 -0.28393555 3.05664062 C-10.20080677 3.02795911 -19.68580392 3.25263036 -29.43237305 5.28125 C-29.43237305 5.94125 -29.43237305 6.60125 -29.43237305 7.28125 C-30.09237305 7.28125 -30.75237305 7.28125 -31.43237305 7.28125 C-31.43237305 7.94125 -31.43237305 8.60125 -31.43237305 9.28125 C-32.17487305 9.6525 -32.91737305 10.02375 -33.68237305 10.40625 C-40.13524752 14.80593714 -42.51055931 24.66564362 -43.9831543 32.0390625 C-44.6131435 36.58594107 -44.81613511 41.12899934 -45.0378418 45.7109375 C-45.32913644 51.07477679 -45.32913644 51.07477679 -46.43237305 53.28125 C-46.57365822 55.05805673 -46.65832168 56.83953673 -46.71362305 58.62109375 C-46.75100586 59.68392578 -46.78838867 60.74675781 -46.8269043 61.84179688 C-46.86170898 62.95619141 -46.89651367 64.07058594 -46.93237305 65.21875 C-47.00122057 67.41549589 -47.07396058 69.61212421 -47.15112305 71.80859375 C-47.1965625 73.27413696 -47.1965625 73.27413696 -47.24291992 74.76928711 C-47.43237305 77.28125 -47.43237305 77.28125 -48.43237305 80.28125 C-48.62636007 82.03681469 -48.77504077 83.7975512 -48.8972168 85.55957031 C-48.97399658 86.63789124 -49.05077637 87.71621216 -49.12988281 88.82720947 C-49.24867798 90.57563141 -49.24867798 90.57563141 -49.36987305 92.359375 C-49.49736938 94.15927887 -49.49736938 94.15927887 -49.62744141 95.99554443 C-49.89943843 99.84053088 -50.1663118 103.68584858 -50.43237305 107.53125 C-50.69890818 111.36233172 -50.9666021 115.19331929 -51.23730469 119.02410889 C-51.40570597 121.40906215 -51.57166125 123.79418971 -51.73486328 126.17950439 C-52.11591077 131.59363744 -52.61385059 136.91731557 -53.43237305 142.28125 C-53.55225268 143.85760543 -53.64898178 145.4360399 -53.71362305 147.015625 C-53.75100586 147.83675781 -53.78838867 148.65789062 -53.8269043 149.50390625 C-53.89786772 151.20440004 -53.96816839 152.90492161 -54.0378418 154.60546875 C-54.07522461 155.42144531 -54.11260742 156.23742187 -54.15112305 157.078125 C-54.18141602 157.81385742 -54.21170898 158.54958984 -54.24291992 159.30761719 C-54.43237305 161.28125 -54.43237305 161.28125 -55.43237305 164.28125 C-55.72206992 166.85978856 -55.97167716 169.42689525 -56.1862793 172.01171875 C-56.25145248 172.76213943 -56.31662567 173.51256012 -56.3837738 174.28572083 C-56.5909027 176.67978317 -56.79294986 179.07424352 -56.99487305 181.46875 C-57.13451226 183.09312777 -57.27448225 184.71747714 -57.41479492 186.34179688 C-57.75782519 190.32129536 -58.09629889 194.30115827 -58.43237305 198.28125 C-59.09237305 198.28125 -59.75237305 198.28125 -60.43237305 198.28125 C-59.85337067 185.6926269 -58.9951731 173.15018538 -57.90620613 160.59572411 C-57.64638796 157.59956915 -57.39056932 154.60309331 -57.13560486 151.60652161 C-56.59210451 145.2269701 -56.04378481 138.84783784 -55.49487305 132.46875 C-54.77395468 124.0875339 -54.05558661 115.70610758 -53.3425293 107.32421875 C-53.25636604 106.31290642 -53.17020279 105.30159409 -53.08142853 104.25963593 C-51.93214352 90.73030958 -50.87255477 77.20167328 -50.05738831 63.64775085 C-47.38252914 19.76686209 -47.38252914 19.76686209 -33.80737305 6.46875 C-24.07995985 -1.22729193 -11.76442728 -0.12836473 0 0 Z " fill="#529AC8" transform="translate(356.432373046875,148.71875)"/>
<path d="M0 0 C0.66 0 1.32 0 2 0 C1.74605469 1.06476563 1.49210938 2.12953125 1.23046875 3.2265625 C0.31540896 7.07436884 -0.58332263 10.92584939 -1.47851562 14.77832031 C-1.91646465 16.64411439 -2.3704199 18.50614131 -2.828125 20.3671875 C-11.98397096 59.42563676 -12.3303825 102.91634938 -7.1875 142.625 C-7.03458496 143.80852051 -6.88166992 144.99204102 -6.72412109 146.21142578 C-5.2763045 156.15424536 -2.54410794 165.51056907 2 174.5 C2.474375 175.4590625 2.94875 176.418125 3.4375 177.40625 C5.53217912 180.88341734 7.55543917 183.42977862 11.375 184.9375 C15.14509861 185.02726425 16.90912739 184.17018715 20 182 C27.4394958 171.56473408 27.75866819 158.01944415 28.58129883 145.72607422 C29.80273795 128.00204056 29.80273795 128.00204056 36.6875 121.4375 C42.92755743 118.72955055 48.80534512 120.76310754 54.8828125 123.109375 C56.96866089 123.97738253 59.04935834 124.85786085 61.125 125.75 C62.17042969 126.18054688 63.21585937 126.61109375 64.29296875 127.0546875 C79.80689854 133.60544926 79.80689854 133.60544926 83 141 C86.65396006 152.63254372 84.68080459 164.72978065 83.5 176.625 C83.35503251 178.12105154 83.21049798 179.61714511 83.06640625 181.11328125 C82.7159237 184.74268516 82.35959963 188.3714867 82 192 C81.67 192 81.34 192 81 192 C80.97256207 190.0000797 80.95340945 188.00004523 80.9375 186 C80.92589844 184.88625 80.91429687 183.7725 80.90234375 182.625 C80.98788924 179.44955132 81.33788694 176.41929579 81.76196289 173.27636719 C82.25389732 168.57196039 82.22640102 163.85069494 82.25 159.125 C82.270625 158.10019531 82.29125 157.07539063 82.3125 156.01953125 C82.34727223 149.17809489 81.3613994 143.42350501 79 137 C78.34 137 77.68 137 77 137 C77 136.34 77 135.68 77 135 C73.09302088 133.3615894 69.12427348 132.04925993 65.0859375 130.78125 C63 130 63 130 60 128 C58.845 127.855625 57.69 127.71125 56.5 127.5625 C52.88119334 126.98090607 52.2224341 126.66692092 50 124 C45.87990318 122.62663439 41.00270935 121.99864533 37 124 C35.86649466 126.01669827 35.86649466 126.01669827 35 128 C34.34 128 33.68 128 33 128 C33.01160156 128.62648438 33.02320313 129.25296875 33.03515625 129.8984375 C33.04417969 130.71570313 33.05320313 131.53296875 33.0625 132.375 C33.07410156 133.18710937 33.08570313 133.99921875 33.09765625 134.8359375 C33 137 33 137 32 139 C31.78889249 141.48344528 31.62597378 143.94966037 31.5 146.4375 C31.41489375 147.89588208 31.32895338 149.35421572 31.2421875 150.8125 C31.09934505 153.27071898 30.95890242 155.72903534 30.8203125 158.1875 C30.39340452 164.19836439 29.25798489 169.40984323 27 175 C26.38125 176.5778125 26.38125 176.5778125 25.75 178.1875 C23.39519327 181.97201081 20.92442408 184.81224634 17 187 C13.89232789 187.63495626 11.08705528 187.77176382 8 187 C6.234375 185.58984375 6.234375 185.58984375 5 184 C5 183.34 5 182.68 5 182 C4.34 182 3.68 182 3 182 C1.5393715 179.35261084 1 178.10551666 1 175 C0.01 174.67 -0.98 174.34 -2 174 C-6.83280883 163.64187619 -8.45665386 152.215756 -10 141 C-10.09562729 140.31288437 -10.19125458 139.62576874 -10.28977966 138.91783142 C-12.11983643 125.28453587 -12.27741048 111.74170113 -12.20581055 98.00195312 C-12.18749307 94.37362633 -12.18530218 90.74555592 -12.18554688 87.1171875 C-12.1379535 54.51001891 -12.1379535 54.51001891 -9.09336853 39.71095276 C-8.03777589 34.53147969 -7.50895481 29.4322243 -7.2109375 24.16015625 C-7 22 -7 22 -6 21 C-5.69819698 19.54775975 -5.43434016 18.08758564 -5.1875 16.625 C-4.09057796 10.83057215 -2.14587573 5.47927492 0 0 Z " fill="#549BC7" transform="translate(192,249)"/>
<path d="M0 0 C8.94925538 -0.45504688 8.94925538 -0.45504688 13 3 C14.3125 5.6875 14.3125 5.6875 15 8 C15.66 8 16.32 8 17 8 C16.97679687 8.76183594 16.95359375 9.52367187 16.9296875 10.30859375 C16.91164063 11.34113281 16.89359375 12.37367188 16.875 13.4375 C16.85179687 14.44683594 16.82859375 15.45617187 16.8046875 16.49609375 C16.99337433 19.88113541 17.67820524 22.90493819 18.4609375 26.19165039 C19.68008291 32.54302253 20.02253167 39.06032489 20.5625 45.5 C20.7497238 47.71207683 20.93872905 49.92393144 21.13328552 52.13537598 C21.30776585 54.12044768 21.47547094 56.10611145 21.64282227 58.09179688 C21.68342216 60.88863417 21.68342216 60.88863417 23 62 C23.21267742 64.58757526 23.3767855 67.15793194 23.5 69.75 C23.71866499 74.25287911 24.08045332 78.58047334 25 83 C25.89175212 92.33587402 26.14226267 101.62647068 26 111 C19.28538377 114.76455555 12.80420945 114.41263533 5.25 114.3125 C3.40341797 114.31733398 3.40341797 114.31733398 1.51953125 114.32226562 C-7.59899791 114.26733473 -7.59899791 114.26733473 -11 112 C-11.38818359 109.15966797 -11.38818359 109.15966797 -11.3984375 105.4921875 C-11.40248596 104.82793762 -11.40653442 104.16368774 -11.41070557 103.47930908 C-11.41674051 101.27744529 -11.3974915 99.07674653 -11.375 96.875 C-11.37167664 96.11459412 -11.36835327 95.35418823 -11.3649292 94.57073975 C-11.30280101 82.37226736 -10.51382921 70.37271312 -9.20629883 58.23974609 C-8.42565069 50.91658775 -7.82748239 43.63176331 -7.49609375 36.2734375 C-7.45814697 35.45690704 -7.4202002 34.64037659 -7.38110352 33.79910278 C-7.20005325 29.82501994 -7.04095652 25.85154627 -6.91064453 21.87548828 C-6.61560373 14.43464549 -6.17802714 8.41474873 -2 2 C-1.34 2 -0.68 2 0 2 C0 1.34 0 0.68 0 0 Z M-2 6 C-2.8606108 8.52830948 -2.8606108 8.52830948 -3.16015625 11.34375 C-3.30727051 12.41238281 -3.45438477 13.48101562 -3.60595703 14.58203125 C-4.29391468 20.54944584 -4.92061008 26.5152617 -5.4375 32.5 C-5.49870026 33.19323364 -5.55990051 33.88646729 -5.62295532 34.60070801 C-6.93729864 49.63102602 -7.82338421 64.68817154 -8.6875 79.75 C-8.75411835 80.90894775 -8.82073669 82.06789551 -8.88937378 83.26196289 C-9.07890063 86.58594513 -9.26502673 89.91009319 -9.44921875 93.234375 C-9.50531311 94.23301575 -9.56140747 95.23165649 -9.61920166 96.26055908 C-9.71716585 98.06881309 -9.80883544 99.8774259 -9.89242554 101.68640137 C-9.9833166 103.64119084 -10.09975527 105.59476736 -10.22192383 107.54785156 C-10.14868896 108.35706055 -10.0754541 109.16626953 -10 110 C-2.25287945 115.16474703 9.38699671 112.98587705 18.13671875 111.66796875 C21.1774843 111.13529545 21.1774843 111.13529545 24 109 C25.61555538 98.34830639 23.31177186 86.28949117 22.3125 75.625 C22.22518616 74.67621979 22.13787231 73.72743958 22.0479126 72.74990845 C20.73307233 58.53165666 19.17973921 44.35178805 17.375 30.1875 C17.27103912 29.36139221 17.16707825 28.53528442 17.05996704 27.68414307 C16.76313991 25.34443993 16.45772197 23.00605449 16.1484375 20.66796875 C16.06207535 19.99069229 15.9757132 19.31341583 15.88673401 18.61561584 C15.16330796 13.30551903 14.40235082 8.02561785 11.3125 3.5625 C6.06709989 0.01831074 1.74195277 1.35175839 -2 6 Z " fill="#559CC8" transform="translate(359,216)"/>
<path d="M0 0 C0.33 0 0.66 0 1 0 C1.28488925 26.48812605 0.76304819 52.89392908 -0.28857422 79.36303711 C-0.88465534 94.1442609 -0.88465534 94.1442609 -1.1875 108.93359375 C-1.20167969 110.22193115 -1.21585937 111.51026855 -1.23046875 112.83764648 C-1.01050984 115.85579032 -0.65904849 117.50882571 1 120 C4.0488013 122.34523177 7.29555477 122.35769115 11.06640625 122.25390625 C13.88828074 121.88335707 15.64162138 120.57225241 18 119 C20.54476162 117.92873745 23.11310502 116.94200129 25.6953125 115.96484375 C28.2078305 114.99892781 28.2078305 114.99892781 31 113 C31.99 113 32.98 113 34 113 C34 112.34 34 111.68 34 111 C37.87036007 107.91715737 42.00786149 105.46801299 47 105 C47 104.34 47 103.68 47 103 C48.32 103.33 49.64 103.66 51 104 C41.1365802 110.16287185 31.21462192 116.15545036 20.75 121.25 C19.60954224 121.8231897 19.60954224 121.8231897 18.44604492 122.40795898 C12.8105966 125.07109556 7.8521469 126.14523286 1.6875 124.3125 C-1.70123354 121.67681836 -3.25208852 118.13197479 -4 114 C-4.09423608 111.24959647 -4.13555159 108.53084565 -4.1171875 105.78125 C-4.11411591 104.98078247 -4.11104431 104.18031494 -4.10787964 103.35559082 C-4.05237549 96.1252621 -3.7014223 88.92587861 -3.25921631 81.70977783 C-2.14474329 63.36075748 -1.4901201 44.99606281 -0.875 26.625 C-0.8416946 25.63166153 -0.8416946 25.63166153 -0.80771637 24.61825562 C-0.53280541 16.41235312 -0.263407 8.20627963 0 0 Z " fill="#579BC5" transform="translate(492,385)"/>
<path d="M0 0 C0.33 0 0.66 0 1 0 C3.32507175 16.58494195 5.62274829 33.1734693 7.8671875 49.76953125 C8.02971008 50.97115906 8.19223267 52.17278687 8.35968018 53.41082764 C9.03571401 58.41126505 9.71139025 63.41175001 10.38574219 68.41241455 C12.23971467 82.15719267 14.11462228 95.89819209 16.0703125 109.62890625 C16.23449677 110.78501404 16.39868103 111.94112183 16.56784058 113.13226318 C17.34398718 118.59459722 18.12572992 124.05601923 18.91748047 129.51611328 C19.19520511 131.46253399 19.47272359 133.40898414 19.75 135.35546875 C19.87770782 136.22047501 20.00541565 137.08548126 20.13699341 137.97669983 C20.85155694 143.04006952 21.11760765 147.88590488 21 153 C16.91185371 145.99174921 16.69567503 138.26790446 16.34375 130.3671875 C16.13683513 127.03764605 16.13683513 127.03764605 15.00976562 124.18701172 C13.9625077 120.88166718 13.66450302 118.09621648 13.5 114.640625 C13.06045252 107.310978 12.2289639 100.08463508 11.27050781 92.80908203 C10.99483331 90.71067161 10.72756586 88.61129588 10.4609375 86.51171875 C10.28694745 85.16920735 10.11248691 83.82675683 9.9375 82.484375 C9.78152344 81.28522461 9.62554687 80.08607422 9.46484375 78.85058594 C9.15529639 76.06273352 9.15529639 76.06273352 8 74 C7.67337006 71.47901071 7.38672726 68.96529324 7.125 66.4375 C6.46366423 60.40857855 5.60971593 54.46228955 4.5 48.5 C1.5567117 32.37646013 0.53398286 16.37330375 0 0 Z " fill="#559CC7" transform="translate(423,246)"/>
<path d="M0 0 C2.49091009 3.73636513 2.25370461 5.65973825 2.26069641 10.12696838 C2.26452196 10.85751543 2.26834751 11.58806247 2.27228898 12.3407473 C2.28263089 14.79567822 2.27862452 17.25037577 2.2746582 19.70532227 C2.27900425 21.46291826 2.28418704 23.22051237 2.29014587 24.97810364 C2.30356453 29.75945794 2.30411094 34.54073332 2.30158257 39.32210279 C2.30051395 43.3152397 2.3053939 47.30836058 2.310188 51.30149406 C2.32129492 60.7281078 2.32171514 70.15468171 2.31567383 79.58129883 C2.30964376 89.29522381 2.32191772 99.00900359 2.3432439 108.72290379 C2.36088706 117.06700994 2.36685663 125.41107002 2.36360615 133.75519413 C2.36179613 138.73654589 2.36440068 143.71779428 2.37832069 148.6991291 C2.39093713 153.39000999 2.38891891 158.0806659 2.37590981 162.7715435 C2.37355207 164.48794507 2.37624975 166.20436265 2.38453293 167.92074585 C2.48456768 190.27190514 2.48456768 190.27190514 -4.5625 197.5625 C-5.16191406 198.20316406 -5.76132812 198.84382812 -6.37890625 199.50390625 C-8 201 -8 201 -10 202 C-10 200.68 -10 199.36 -10 198 C-9.401875 197.7525 -8.80375 197.505 -8.1875 197.25 C-5.13865246 195.50780141 -3.49690223 193.347755 -2.28074074 190.04914284 C-0.52282613 181.48528769 -0.69152356 172.85740162 -0.68115234 164.15771484 C-0.67184152 162.36315465 -0.66167115 160.56859873 -0.65071106 158.77404785 C-0.62352708 153.9276962 -0.60829622 149.08137343 -0.59528303 144.2349658 C-0.57960149 139.16073024 -0.55282738 134.08655322 -0.5272522 129.01235962 C-0.4805531 119.41498762 -0.44376616 109.81760449 -0.41057932 100.22017729 C-0.37229513 89.2890409 -0.32290153 78.35796343 -0.27259517 67.42687678 C-0.16940728 44.95129491 -0.0801043 22.47567516 0 0 Z " fill="#5499C5" transform="translate(553,286)"/>
<path d="M0 0 C0.33 0 0.66 0 1 0 C2.23614996 8.73893208 3.47096866 17.47805108 4.70426559 26.21738625 C5.27749784 30.27912473 5.85112308 34.34080674 6.42578125 38.40234375 C7.64306512 47.0074762 8.85479012 55.61334284 10.05358124 64.22107315 C10.57154914 67.93914093 11.09220175 71.65677813 11.62036133 75.37341309 C12.19862795 79.44302943 12.76390598 83.51434973 13.328125 87.5859375 C13.58393341 89.36504013 13.58393341 89.36504013 13.84490967 91.18008423 C16.75855787 112.49663758 16.75855787 112.49663758 12 119 C7.50419139 123.37502569 4.149879 124.90504605 -2 125.8125 C-3.02867187 125.99329102 -3.02867187 125.99329102 -4.078125 126.17773438 C-8.08521489 126.84685721 -11.94203536 127.12047083 -16 127 C-13.6950301 124.6950301 -12.89014188 124.62898998 -9.75390625 124.18359375 C-8.91666016 124.05919922 -8.07941406 123.93480469 -7.21679688 123.80664062 C-6.34087891 123.68482422 -5.46496094 123.56300781 -4.5625 123.4375 C-2.83431276 123.18842645 -1.10643237 122.93721211 0.62109375 122.68359375 C1.3886499 122.57587646 2.15620605 122.46815918 2.94702148 122.35717773 C5.18976577 122.01948824 5.18976577 122.01948824 8 121 C8 120.34 8 119.68 8 119 C8.474375 118.54625 8.94875 118.0925 9.4375 117.625 C13.0062225 113.9135286 12.19387245 108.37317753 12.15136719 103.54443359 C11.89871307 97.62825218 11.17156619 91.78363127 10.40087891 85.91723633 C10.12413424 83.80589492 9.86006127 81.6932448 9.59765625 79.58007812 C8.81391946 73.38502891 7.9501351 67.26836883 6.49731445 61.19189453 C4.42603878 52.06282579 3.41766487 42.73388246 2.4375 33.4375 C2.30819092 32.22545898 2.17888184 31.01341797 2.0456543 29.76464844 C1.02076146 19.852761 0.35560117 9.95683276 0 0 Z " fill="#559BC7" transform="translate(444,401)"/>
<path d="M0 0 C3 1 3 1 4.15234375 2.67236328 C5.21218228 5.5826457 5.39285249 8.14837636 5.5625 11.2421875 C5.63726562 12.47453125 5.71203125 13.706875 5.7890625 14.9765625 C5.85867188 16.26304687 5.92828125 17.54953125 6 18.875 C6.41784541 26.36526582 6.89945482 33.75444213 8.0546875 41.171875 C9.03502219 47.62044023 9.23639366 53.86275549 9.125 60.375 C9.11597656 61.40882813 9.10695313 62.44265625 9.09765625 63.5078125 C9.07452975 66.0054749 9.04195691 68.50259565 9 71 C9.66 71 10.32 71 11 71 C11.99 88.82 12.98 106.64 14 125 C14.66 125 15.32 125 16 125 C16.33 126.98 16.66 128.96 17 131 C12.11082512 126.77753079 11.60065679 121.33399759 11.02734375 115.19921875 C10.94685287 114.3878093 10.866362 113.57639984 10.78343201 112.74040222 C9.41176212 98.4111628 8.45491823 84.0408047 7.40722656 69.68487549 C6.25514318 53.90834036 5.07590533 38.13451073 3.65489006 22.37952232 C3.52967344 20.98415607 3.40677905 19.58857917 3.28637886 18.19278908 C3.11870756 16.26028467 2.94030673 14.32872036 2.76147461 12.3972168 C2.66257431 11.30322067 2.56367401 10.20922455 2.46177673 9.08207703 C1.98165533 5.87756055 1.11264623 3.03764169 0 0 Z " fill="#519AC7" transform="translate(381,393)"/>
<path d="M0 0 C0.66 0.33 1.32 0.66 2 1 C1.65066406 1.4846875 1.30132812 1.969375 0.94140625 2.46875 C0.48636719 3.1390625 0.03132813 3.809375 -0.4375 4.5 C-0.88996094 5.1496875 -1.34242188 5.799375 -1.80859375 6.46875 C-5.29007003 13.86546026 -4.36388193 23.62445935 -4.68359375 31.64453125 C-4.74364552 33.08637418 -4.80405257 34.52820235 -4.86479187 35.97001648 C-4.99260791 39.01380162 -5.11872519 42.05764993 -5.24346924 45.1015625 C-5.56525822 52.9392173 -5.9013064 60.77626686 -6.23828125 68.61328125 C-6.27115486 69.37920216 -6.30402847 70.14512306 -6.33789825 70.93425369 C-6.86233267 83.1268179 -7.43021288 95.31582325 -8.125 107.5 C-8.16333954 108.19421051 -8.20167908 108.88842102 -8.24118042 109.60366821 C-8.86908634 120.87879346 -8.86908634 120.87879346 -10 126 C-10.33 126 -10.66 126 -11 126 C-11.28548833 111.88418793 -10.79821187 97.84349074 -10.0625 83.75 C-10.01893372 82.88864441 -9.97536743 82.02728882 -9.93048096 81.13983154 C-9.80419294 78.67101533 -9.67106247 76.20267854 -9.53515625 73.734375 C-9.49655991 72.98320404 -9.45796356 72.23203308 -9.41819763 71.45809937 C-9.1156732 66.23134639 -9.1156732 66.23134639 -8 64 C-7.89132581 62.37279671 -7.84368502 60.74133248 -7.82641602 59.1105957 C-7.81292618 58.09226151 -7.79943634 57.07392731 -7.78553772 56.0247345 C-7.76988014 54.36700264 -7.76988014 54.36700264 -7.75390625 52.67578125 C-7.7209565 50.34439745 -7.68774505 48.01301733 -7.65429688 45.68164062 C-7.60695417 41.9994572 -7.56255117 38.31728751 -7.52319336 34.63500977 C-7.48336438 31.08593734 -7.43183228 27.53717919 -7.37890625 23.98828125 C-7.3704921 22.89324783 -7.36207794 21.79821442 -7.35340881 20.66999817 C-7.13976221 7.3944958 -7.13976221 7.3944958 -2.375 2.0625 C-1.59125 1.381875 -0.8075 0.70125 0 0 Z " fill="#519BC9" transform="translate(357,390)"/>
<path d="M0 0 C0.33 0 0.66 0 1 0 C1.19144371 9.497735 1.17322845 18.81272389 0 28.25 C-0.8893159 35.55778978 -1.19222355 42.76334623 -1.1875 50.125 C-1.18814453 51.0727832 -1.18878906 52.02056641 -1.18945312 52.99707031 C-1.14480393 58.73449175 -0.72742269 64.30864484 0 70 C1.32 70.33 2.64 70.66 4 71 C4 71.66 4 72.32 4 73 C12.79526041 74.85135774 21.35625188 75.28525471 30.30249023 75.20581055 C32.45893981 75.18731613 34.61496293 75.18530328 36.77148438 75.18554688 C44.94392816 75.2237537 44.94392816 75.2237537 53 74 C53 73.01 53 72.02 53 71 C53.99 70.67 54.98 70.34 56 70 C57.22520264 66.99152582 57.22520264 66.99152582 58 64 C58.66 64 59.32 64 60 64 C59.68327951 69.22588808 56.69889181 72.5609835 53 76 C46.69311912 80.09737494 38.60720163 79.05994401 31.4375 78.6875 C30.46748047 78.63827393 29.49746094 78.58904785 28.49804688 78.53833008 C5.73906125 77.27373196 5.73906125 77.27373196 0 72 C-5.96941884 65.20721305 -4.36788193 55.41618935 -3.87969971 46.90185547 C-3.53014661 42.09273931 -3.05008458 37.29674744 -2.5625 32.5 C-2.28909606 29.73995309 -2.0202693 26.97948482 -1.75390625 24.21875 C-1.68877838 23.54884033 -1.62365051 22.87893066 -1.55654907 22.1887207 C-0.85611871 14.80409792 -0.41546521 7.40531135 0 0 Z " fill="#549CC8" transform="translate(286,452)"/>
<path d="M0 0 C2.48587477 2.19801393 3.54806035 3.93906534 4.5 7.10546875 C4.74596924 7.91612793 4.99193848 8.72678711 5.24536133 9.56201172 C5.49439209 10.42842285 5.74342285 11.29483398 6 12.1875 C6.26127686 13.08227051 6.52255371 13.97704102 6.79174805 14.89892578 C10.37021567 27.45538346 12.51349507 39.92333718 13 53 C13.05285156 54.13308594 13.10570312 55.26617187 13.16015625 56.43359375 C13.35518259 64.17529162 12.64599566 71.53217154 11.5625 79.1875 C11.42956543 80.13850586 11.29663086 81.08951172 11.15966797 82.06933594 C10.60601809 85.96730281 10.02745289 89.84700233 9.33203125 93.72265625 C8.48913263 99.30595909 8.68727293 102.26551496 12 106.9375 C12.639375 107.73027344 13.27875 108.52304688 13.9375 109.33984375 C16.31817087 112.41036811 18.16315037 115.58648974 20 119 C20.8971875 120.6396875 20.8971875 120.6396875 21.8125 122.3125 C22.204375 123.199375 22.59625 124.08625 23 125 C22.67 125.66 22.34 126.32 22 127 C17.62604676 121.03434188 13.76821249 115.01402744 10.359375 108.4453125 C9.11205007 105.98137378 9.11205007 105.98137378 7.3203125 104.15625 C5.36392807 100.96120798 5.81380914 97.96722496 6.125 94.375 C6.16109375 93.71371094 6.1971875 93.05242187 6.234375 92.37109375 C6.51851406 88.47539774 7.24517888 85.12975393 8.53125 81.44140625 C10.69316761 74.59773739 10.45770169 67.67246154 10.375 60.5625 C10.37034729 59.85346527 10.36569458 59.14443054 10.36090088 58.41390991 C10.21926598 39.99333117 7.02531224 23.65927423 1.61669922 6.08032227 C1.01923809 4.06489618 0.49409399 2.04296622 0 0 Z " fill="#5499C6" transform="translate(564,124)"/>
<path d="M0 0 C2.54684914 3.82027371 2.07763399 6.60829699 1.75 10.98828125 C1.6977124 11.78510818 1.6454248 12.58193512 1.59155273 13.40290833 C1.02703496 21.52663477 0.16604858 29.61830054 -0.72784424 37.71121216 C-2.10088748 50.20424283 -3.32525182 62.63689347 -3.70483398 75.20605469 C-4.01484324 85.17534932 -4.9943966 95.08009574 -6 105 C-6.33 105 -6.66 105 -7 105 C-8.42896345 93.05272198 -7.46893744 81.65034138 -6.34765625 69.7265625 C-6.16589124 67.70641673 -5.98511706 65.68618158 -5.80528259 63.66586304 C-5.33342088 58.39449628 -4.84826734 53.12443794 -4.36016846 47.85455322 C-3.86280963 42.45845977 -3.37826182 37.06121707 -2.89257812 31.6640625 C-1.94079574 21.10822311 -0.9749426 10.55372373 0 0 Z " fill="#539CC7" transform="translate(295,351)"/>
<path d="M0 0 C0.99 1.485 0.99 1.485 2 3 C0.783125 2.79375 -0.43375 2.5875 -1.6875 2.375 C-14.31641734 1.03735766 -29.29544253 5.31006023 -40.5 11.1875 C-44.37483364 13.19411028 -47.75338183 14.09001039 -52 15 C-52 15.66 -52 16.32 -52 17 C-52.54527344 17.15855469 -53.09054687 17.31710938 -53.65234375 17.48046875 C-59.60523042 19.32230206 -64.63650612 21.86937696 -70 25 C-72.74585898 26.54905601 -75.49862225 28.08577204 -78.25 29.625 C-79.60994531 30.38700389 -80.96934303 31.1499861 -82.328125 31.9140625 C-82.95912109 32.26758789 -83.59011719 32.62111328 -84.24023438 32.98535156 C-85.80766097 33.88910086 -87.33688518 34.85838256 -88.859375 35.8359375 C-89.56578125 36.22007812 -90.2721875 36.60421875 -91 37 C-91.66 36.67 -92.32 36.34 -93 36 C-25.48193522 -6.70577243 -25.48193522 -6.70577243 0 0 Z " fill="#5699C2" transform="translate(562,121)"/>
<path d="M0 0 C0 0.66 0 1.32 0 2 C0.99 2.33 1.98 2.66 3 3 C6.64739106 9.2821158 6.89616035 16.07067706 7.5625 23.1875 C7.78593068 25.51500928 8.01611674 27.84188258 8.25390625 30.16796875 C8.35002197 31.19172607 8.4461377 32.2154834 8.54516602 33.27026367 C8.9914927 35.94894253 9.48883572 37.7508779 11 40 C11.99 40.33 12.98 40.66 14 41 C14 41.66 14 42.32 14 43 C17.3 43 20.6 43 24 43 C21.62959692 45.37040308 20.93697247 45.34465793 17.6875 45.4375 C13.96632052 45.35972615 13.16236164 45.1243621 10.0625 42.75 C6.96254232 38.61672309 5.77330741 35.82001047 5.5078125 30.640625 C5.44207031 29.60679687 5.37632812 28.57296875 5.30859375 27.5078125 C5.18709978 25.35194084 5.07241196 23.19567384 4.96484375 21.0390625 C4.47416282 13.57700909 3.3764965 7.72578924 -1.8125 2 C-5.09156153 0.50100045 -7.43382527 0.5695996 -11 1 C-15.91748748 3.5069544 -18.27000628 6.38001062 -21 11 C-22.125 7.25 -22.125 7.25 -21 5 C-20.34 5 -19.68 5 -19 5 C-19 4.01 -19 3.02 -19 2 C-14.93471672 -2.06528328 -5.1069248 -2.5534624 0 0 Z " fill="#4F97C3" transform="translate(222,225)"/>
<path d="M0 0 C5.98184114 1.99394705 8.75303576 9.51940803 11.4609375 14.90625 C17.60739305 28.76371341 19.17884758 43.44169834 19.3125 58.4375 C19.34150391 59.51837891 19.37050781 60.59925781 19.40039062 61.71289062 C19.45405327 68.51979075 18.78903991 74.18850873 15 80 C14.01 80.495 14.01 80.495 13 81 C14.86384266 75.27534039 14.86384266 75.27534039 16.0546875 72.8671875 C17.38692183 68.82644371 17.29664029 65.03943109 17.25 60.8125 C17.24311157 59.53330688 17.24311157 59.53330688 17.23608398 58.22827148 C17.16193681 53.08658266 16.75531132 48.30527357 15.4921875 43.3046875 C14.91102586 40.58337504 14.81020245 37.9663495 14.6875 35.1875 C13.9090561 24.71877164 8.88498767 10.88498767 1.3203125 3.3203125 C0.88460938 2.88460937 0.44890625 2.44890625 0 2 C0 1.34 0 0.68 0 0 Z " fill="#579BC6" transform="translate(265,169)"/>
<path d="M0 0 C0.33 0 0.66 0 1 0 C1.07643488 7.50725743 1.12876094 15.01441346 1.16479492 22.52197266 C1.17982636 25.07279206 1.20025705 27.62358585 1.22631836 30.17431641 C1.26294972 33.85325463 1.27978346 37.53184935 1.29296875 41.2109375 C1.30845261 42.34050873 1.32393646 43.47007996 1.33988953 44.63388062 C1.34168882 53.21268149 0.68808759 62.09590939 -5.5625 68.5625 C-6.16191406 69.20316406 -6.76132812 69.84382813 -7.37890625 70.50390625 C-9 72 -9 72 -11 73 C-11 71.68 -11 70.36 -11 69 C-10.401875 68.7525 -9.80375 68.505 -9.1875 68.25 C-6.15254087 66.51573764 -4.50401394 64.36244785 -3.28930664 61.07885742 C-1.48384814 52.24518512 -1.57747539 43.29266022 -1.4375 34.3125 C-1.37848161 31.01682265 -1.31410633 27.7212848 -1.24609375 24.42578125 C-1.23017181 23.63035919 -1.21424988 22.83493713 -1.19784546 22.01541138 C-1.03125554 14.65776862 -0.57336282 7.33670386 0 0 Z " fill="#5BA0CA" transform="translate(554,415)"/>
<path d="M0 0 C3.375 -0.1875 3.375 -0.1875 7 0 C7.66 0.99 8.32 1.98 9 3 C9.99 3.33 10.98 3.66 12 4 C12 4.66 12 5.32 12 6 C12.556875 6.12375 13.11375 6.2475 13.6875 6.375 C16 7 16 7 18.125 7.9375 C27.35021778 11.34681962 37.2204838 12.8035634 46.4375 8.9375 C47.24058594 8.55464844 48.04367188 8.17179687 48.87109375 7.77734375 C51 7 51 7 54 8 C44.65594083 13.60230096 35.40376021 15.41372018 24.703125 12.859375 C15.92579992 10.06889593 7.55024049 6.28516835 0 1 C0 0.67 0 0.34 0 0 Z " fill="#559AC6" transform="translate(191,497)"/>
<path d="M0 0 C0.66 0.33 1.32 0.66 2 1 C1.51144531 1.64582031 1.02289063 2.29164063 0.51953125 2.95703125 C-1.4982808 6.99784252 -1.41141957 10.23702264 -1.3125 14.6875 C-1.3019458 15.51677002 -1.2913916 16.34604004 -1.28051758 17.20043945 C-1.15818246 23.05204345 -0.78362056 28.86565527 -0.1875 34.6875 C-0.11764893 35.40446045 -0.04779785 36.1214209 0.02416992 36.86010742 C0.88241845 44.16760261 2.9651649 50.44431989 8 56 C7.67 56.66 7.34 57.32 7 58 C6.03328244 56.94512267 5.07701255 55.88066719 4.125 54.8125 C3.59132813 54.22082031 3.05765625 53.62914062 2.5078125 53.01953125 C-0.27372222 49.29400417 -1.25359857 45.37836221 -1.8515625 40.82421875 C-1.98103271 39.83856934 -2.11050293 38.85291992 -2.24389648 37.83740234 C-5.89283014 7.67818263 -5.89283014 7.67818263 0 0 Z " fill="#579AC4" transform="translate(435,161)"/>
<path d="M0 0 C0.33 0 0.66 0 1 0 C0.20383528 18.43121316 -5.10119731 43.05767405 -19 56 C-19 54.35 -19 52.7 -19 51 C-18.01 51 -17.02 51 -16 51 C-16 49.68 -16 48.36 -16 47 C-15.01 46.505 -15.01 46.505 -14 46 C-9.58496435 38.28906029 -7.18391627 30.71173226 -5.640625 21.99609375 C-5 19 -5 19 -3.98828125 17.046875 C-2.54509316 14.05782141 -2.34209235 11.09343798 -1.9375 7.8125 C-1.10117647 1.10117647 -1.10117647 1.10117647 0 0 Z " fill="#599CC4" transform="translate(272,441)"/>
<path d="M0 0 C2.00401011 0.30830925 4.00291344 0.64963394 6 1 C6.65355469 1.11085937 7.30710937 1.22171875 7.98046875 1.3359375 C13.67638725 2.4356959 18.70381088 4.46398619 24.01171875 6.77734375 C26.74359538 7.89509197 29.40347814 8.73480595 32.25 9.5 C37.0785525 10.85168217 40.92464954 13.11993389 45 16 C44.67 16.66 44.34 17.32 44 18 C43.48260254 17.71229736 42.96520508 17.42459473 42.43212891 17.12817383 C34.08206695 12.7082217 25.28093304 9.75847941 16.375 6.6875 C14.78233784 6.13277619 13.18988807 5.57744219 11.59765625 5.02148438 C7.73418166 3.67394752 3.86793315 2.33468239 0 1 C0 0.67 0 0.34 0 0 Z " fill="#5298C2" transform="translate(443,219)"/>
<path d="M0 0 C2.89025325 5.21881578 3.80271815 11.0457062 5.125 16.8125 C5.40214844 17.97587891 5.67929687 19.13925781 5.96484375 20.33789062 C8.06126055 29.41031507 9.16149333 35.50361779 5 44 C4.4375 42.0625 4.4375 42.0625 4 40 C4.495 39.505 4.495 39.505 5 39 C5.76438608 29.36873535 3.44533781 20.26085764 1 11 C0.67 10.67 0.34 10.34 0 10 C-0.07205511 8.31391034 -0.08386068 6.62499341 -0.0625 4.9375 C-0.05347656 4.01839844 -0.04445313 3.09929687 -0.03515625 2.15234375 C-0.02355469 1.44207031 -0.01195312 0.73179687 0 0 Z " fill="#589DC7" transform="translate(596,272)"/>
<path d="M0 0 C0.33 0 0.66 0 1 0 C1.20407438 12.02312035 1.22692976 23.95855994 0.0625 35.9375 C-0.02435059 36.83621826 -0.11120117 37.73493652 -0.20068359 38.66088867 C-0.85771068 44.85771068 -0.85771068 44.85771068 -2 46 C-2.23075082 47.34747084 -2.41153063 48.70377565 -2.5625 50.0625 C-2.7790625 52.0115625 -2.7790625 52.0115625 -3 54 C-3.33 54 -3.66 54 -4 54 C-4.14374652 46.7268256 -3.71487802 39.61072482 -3 32.375 C-2.90460938 31.37082031 -2.80921875 30.36664063 -2.7109375 29.33203125 C-2.47813335 26.88758764 -2.2410936 24.4436375 -2 22 C-1.34 22 -0.68 22 0 22 C0 14.74 0 7.48 0 0 Z " fill="#439AD2" transform="translate(274,396)"/>
<path d="M0 0 C3.27248149 3.9730127 5.29746649 8.51508314 7.48242188 13.13085938 C9.03361934 16.70305183 9.03361934 16.70305183 12 19 C13.0589197 20.71498952 14.04952637 22.47261431 15 24.25 C15.515625 25.20390625 16.03125 26.1578125 16.5625 27.140625 C17.8606262 29.72276734 18.97507978 32.29972942 20 35 C16.24068712 31.60449159 13.75391606 27.77564968 11.125 23.5 C10.68881348 22.79528564 10.25262695 22.09057129 9.80322266 21.36450195 C0 5.32764919 0 5.32764919 0 0 Z " fill="#5598C2" transform="translate(130,427)"/>
<path d="M0 0 C0.99 0 1.98 0 3 0 C3 0.66 3 1.32 3 2 C4.299375 2.2475 4.299375 2.2475 5.625 2.5 C10.21148884 4.53843949 12.48639499 7.72152338 15 12 C15 12.66 15 13.32 15 14 C15.66 14 16.32 14 17 14 C18.7143618 15.95927063 20.38405168 17.95880212 22 20 C21.67 20.66 21.34 21.32 21 22 C11.10671638 12.27960871 11.10671638 12.27960871 8.25 8.6875 C5.73201713 5.67990935 3.03526152 3.4705617 0 1 C0 0.67 0 0.34 0 0 Z " fill="#519AC4" transform="translate(556,286)"/>
<path d="M0 0 C0.66 0 1.32 0 2 0 C0.67581925 3.97254225 -1.69849449 4.85269918 -5.1875 6.75 C-5.80665283 7.09345459 -6.42580566 7.43690918 -7.0637207 7.79077148 C-9.03511017 8.87477469 -11.01571062 9.93981426 -13 11 C-13.65484375 11.35271973 -14.3096875 11.70543945 -14.984375 12.06884766 C-16.87810151 13.08151791 -18.78010366 14.07585475 -20.6875 15.0625 C-21.82574219 15.65160156 -22.96398437 16.24070312 -24.13671875 16.84765625 C-27 18 -27 18 -30 17 C-27.64776003 15.7254916 -25.29333069 14.45534102 -22.9375 13.1875 C-21.95233398 12.65286133 -21.95233398 12.65286133 -20.94726562 12.10742188 C-17.70123075 10.36447704 -14.48162984 8.75014306 -11.06640625 7.36328125 C-7.90958688 6.34885377 -7.90958688 6.34885377 -7 4 C-4.6859378 3.26924352 -2.35171131 2.59861742 0 2 C0 1.34 0 0.68 0 0 Z " fill="#5398C3" transform="translate(276,250)"/>
<path d="M0 0 C0.33 0 0.66 0 1 0 C1.19820989 4.02037968 1.3816467 8.04130512 1.5625 12.0625 C1.61857422 13.19623047 1.67464844 14.32996094 1.73242188 15.49804688 C2.22747067 26.81816273 2.22747067 26.81816273 1 32 C0.01 32.495 0.01 32.495 -1 33 C-0.67 22.11 -0.34 11.22 0 0 Z " fill="#3E97CE" transform="translate(287,447)"/>
<path d="M0 0 C4.50457022 2.04080294 8.2175541 5.06534006 12.1484375 8.02734375 C14.97758301 10.09694708 14.97758301 10.09694708 18.2890625 11.56640625 C21 13 21 13 22 16 C16.85512077 14.61454084 13.40495285 12.37809694 9.3125 9.125 C8.74466797 8.69058594 8.17683594 8.25617188 7.59179688 7.80859375 C4.5898691 5.46476737 2.09871091 3.18885403 0 0 Z " fill="#5396BF" transform="translate(169,481)"/>
<path d="M0 0 C7.44596662 1.71829999 13.69281415 6.79218294 18 13 C14.22272911 11.18690997 10.62730178 9.0926741 7 7 C7 6.34 7 5.68 7 5 C5.35 4.67 3.7 4.34 2 4 C2 3.34 2 2.68 2 2 C1.34 2 0.68 2 0 2 C0 1.34 0 0.68 0 0 Z " fill="#4E99C6" transform="translate(247,156)"/>
<path d="M0 0 C0.33 0 0.66 0 1 0 C1.05841253 3.54159657 1.09373452 7.08306793 1.125 10.625 C1.14175781 11.62402344 1.15851563 12.62304688 1.17578125 13.65234375 C1.21014246 18.84088709 1.10254937 23.14923649 -1 28 C-1.33 28 -1.66 28 -2 28 C-1.39292984 18.66145265 -0.73941193 9.32917607 0 0 Z " fill="#3D98CF" transform="translate(293,390)"/>
<path d="M0 0 C3.75492877 1.52410941 5.80785724 3.77268765 8.4375 6.8125 C12.10917591 11.00978852 12.10917591 11.00978852 16 15 C18 17 18 17 19 19 C15.07867179 17.40927252 12.4172092 14.71490199 9.5 11.75 C9.02691406 11.28464844 8.55382812 10.81929688 8.06640625 10.33984375 C4.86113574 7.11681551 2.40017213 3.82668953 0 0 Z " fill="#5597BF" transform="translate(150,462)"/>
<path d="M0 0 C4.11196775 6.16795162 4.26793858 13.76565833 4 21 C0.14199441 14.38627613 -0.31037657 7.44903769 0 0 Z " fill="#4F97C9" transform="translate(440,378)"/>
<path d="M0 0 C3.01614813 1.1170919 4.64508669 2.6125776 6.625 5.0625 C8.67119397 8.00824713 8.67119397 8.00824713 11 9 C14.83936768 9.1421988 18.32016639 9.17754676 22 8 C20.20116115 10.29851631 19.01463951 10.99544549 16.1875 11.875 C12.06472314 12.03667752 10.43184784 11.31124447 7 9 C0 1.94343434 0 1.94343434 0 0 Z " fill="#5697BF" transform="translate(578,308)"/>
<path d="M0 0 C3.12572333 2.69159509 4.8036782 5.9634132 6.75 9.5625 C7.38421875 10.71878906 8.0184375 11.87507812 8.671875 13.06640625 C9.11015625 14.03449219 9.5484375 15.00257813 10 16 C9.67 16.66 9.34 17.32 9 18 C7.8745809 16.39612733 6.74968028 14.79189084 5.625 13.1875 C4.99851562 12.29417969 4.37203125 11.40085938 3.7265625 10.48046875 C1.03396524 6.61214463 -0.2562369 4.74038257 0 0 Z " fill="#559CC4" transform="translate(577,233)"/>
<path d="M0 0 C0.66 0 1.32 0 2 0 C1.38251126 2.77270429 0.75637544 5.54295598 0.125 8.3125 C-0.04902344 9.09818359 -0.22304687 9.88386719 -0.40234375 10.69335938 C-0.57636719 11.45068359 -0.75039062 12.20800781 -0.9296875 12.98828125 C-1.08679199 13.68477783 -1.24389648 14.38127441 -1.40576172 15.09887695 C-2 17 -2 17 -4 20 C-3.6143354 12.88515313 -2.60900601 6.64558134 0 0 Z " fill="#5C9DC7" transform="translate(192,249)"/>
<path d="M0 0 C0.66 0.66 1.32 1.32 2 2 C-4.37358711 2.96205088 -10.55929529 3.10655578 -17 3 C-11.33573231 0.07266838 -6.30886755 -0.31027217 0 0 Z " fill="#569DCD" transform="translate(346,149)"/>
<path d="M0 0 C3.62237366 0.88111792 4.7970811 1.67812864 6.8125 4.875 C8.76148808 10.03215385 8.24025389 15.58093996 8 21 C7.67 21 7.34 21 7 21 C6.85304687 19.69675781 6.85304687 19.69675781 6.703125 18.3671875 C5.55436898 9.46835339 5.55436898 9.46835339 1 2 C0.67 1.34 0.34 0.68 0 0 Z " fill="#609EC5" transform="translate(220,226)"/>
<path d="M0 0 C3.60224362 0.55419133 7.18015175 1.20507556 10.75 1.9375 C11.50796875 2.09089844 12.2659375 2.24429688 13.046875 2.40234375 C15 3 15 3 17 5 C13.01754349 6.3274855 10.55210457 4.99907829 6.8125 3.5625 C5.83120117 3.19801758 5.83120117 3.19801758 4.83007812 2.82617188 C3.21696714 2.2256707 1.6080565 1.61390797 0 1 C0 0.67 0 0.34 0 0 Z " fill="#5A9EC9" transform="translate(443,219)"/>
<path d="M0 0 C0.33 0 0.66 0 1 0 C1.05389087 1.95803507 1.09274217 3.91648909 1.125 5.875 C1.14820313 6.96554687 1.17140625 8.05609375 1.1953125 9.1796875 C1 12 1 12 -1 14 C-2.1577506 10.52674819 -2.06866652 7.63932552 -2 4 C-1.34 4 -0.68 4 0 4 C0 2.68 0 1.36 0 0 Z " fill="#3C98D2" transform="translate(298,343)"/>
<path d="M0 0 C0.33 0 0.66 0 1 0 C1.06058594 0.92683594 1.12117188 1.85367187 1.18359375 2.80859375 C1.26738281 4.00613281 1.35117187 5.20367187 1.4375 6.4375 C1.51871094 7.63246094 1.59992188 8.82742188 1.68359375 10.05859375 C1.67656114 12.88570244 1.67656114 12.88570244 3 14 C3.04092937 16.33297433 3.04241723 18.66705225 3 21 C2.34 20.67 1.68 20.34 1 20 C-0.25857557 15.79683254 -0.11656948 11.53385395 -0.0625 7.1875 C-0.05798828 6.49462891 -0.05347656 5.80175781 -0.04882812 5.08789062 C-0.03713156 3.39188932 -0.01919924 1.69593297 0 0 Z " fill="#4A94C1" transform="translate(379,264)"/>
<path d="M0 0 C4.95 2.31 9.9 4.62 15 7 C11.01508155 8.32830615 9.59951452 7.23204404 5.8125 5.5625 C4.72582031 5.08941406 3.63914063 4.61632812 2.51953125 4.12890625 C1.68808594 3.75636719 0.85664063 3.38382813 0 3 C0 2.01 0 1.02 0 0 Z " fill="#5B9FC6" transform="translate(212,136)"/>
<path d="M0 0 C3.50270401 3.50270401 3.05580639 7.58011525 3.0625 12.3125 C3.04653226 13.8750573 3.02730408 15.43759968 3 17 C2.67 17 2.34 17 2 17 C0.4943096 11.19233704 -0.21824777 6.0018137 0 0 Z " fill="#4B94C0" transform="translate(413,179)"/>
<path d="M0 0 C0.66 0.33 1.32 0.66 2 1 C0.87895467 2.31587941 -0.24696965 3.62760353 -1.375 4.9375 C-2.00148438 5.66839844 -2.62796875 6.39929688 -3.2734375 7.15234375 C-5 9 -5 9 -7 10 C-7 8.68 -7 7.36 -7 6 C-6.401875 5.7525 -5.80375 5.505 -5.1875 5.25 C-2.71352479 3.83629988 -1.56629745 2.34944617 0 0 Z " fill="#5A9DC9" transform="translate(550,478)"/>
<path d="M0 0 C0.33 0 0.66 0 1 0 C0.03644647 10.55808656 0.03644647 10.55808656 -1 15 C-1.33 15 -1.66 15 -2 15 C-2.3690205 4.44191344 -2.3690205 4.44191344 0 0 Z " fill="#499BD0" transform="translate(355,221)"/>
<path d="M0 0 C0.66 0 1.32 0 2 0 C4.59227518 4.86051596 4.18689553 9.65271133 4 15 C3.67 15 3.34 15 3 15 C2.34 11.04 1.68 7.08 1 3 C0.34 3 -0.32 3 -1 3 C-0.67 2.01 -0.34 1.02 0 0 Z " fill="#449CD3" transform="translate(489,234)"/>
<path d="M0 0 C1.90608098 3.21182149 2.22266247 5.53882603 2.125 9.25 C2.10695313 10.14203125 2.08890625 11.0340625 2.0703125 11.953125 C2.04710937 12.62859375 2.02390625 13.3040625 2 14 C1.67 14 1.34 14 1 14 C-0.79217969 8.83430559 -1.12029814 5.48946087 0 0 Z " fill="#429BD1" transform="translate(442,395)"/>
<path d="M0 0 C0.99 0.33 1.98 0.66 3 1 C-0.465 3.97 -0.465 3.97 -4 7 C-4 6.01 -4 5.02 -4 4 C-3.34 4 -2.68 4 -2 4 C-2 3.01 -2 2.02 -2 1 C-1.34 0.67 -0.68 0.34 0 0 Z " fill="#5398C3" transform="translate(250,497)"/>
<path d="M0 0 C3.375 0.25 3.375 0.25 7 1 C8.4375 3.0625 8.4375 3.0625 9 5 C5.22454612 3.90931332 2.52956528 3.0916909 0 0 Z " fill="#599BC6" transform="translate(182,492)"/>
<path d="M0 0 C2.38672669 2.96283313 4.7353371 5.94270509 7 9 C6.67 9.66 6.34 10.32 6 11 C4.98805294 9.92781799 3.99081943 8.84173622 3 7.75 C2.443125 7.14671875 1.88625 6.5434375 1.3125 5.921875 C0 4 0 4 0 0 Z " fill="#4D94C0" transform="translate(436,208)"/>
<path d="M0 0 C0.33 0 0.66 0 1 0 C0.88637738 1.4800841 0.75877092 2.95910074 0.625 4.4375 C0.52058594 5.67306641 0.52058594 5.67306641 0.4140625 6.93359375 C0.27742188 7.61550781 0.14078125 8.29742187 0 9 C-0.99 9.495 -0.99 9.495 -2 10 C-2 8.02 -2 6.04 -2 4 C-1.34 4 -0.68 4 0 4 C0 2.68 0 1.36 0 0 Z " fill="#429CD3" transform="translate(269,450)"/>
<path d="M0 0 C0.33 0.66 0.66 1.32 1 2 C0.22265625 3.7265625 0.22265625 3.7265625 -0.9375 5.625 C-1.618125 6.73875 -2.29875 7.8525 -3 9 C-3.75 7.3125 -3.75 7.3125 -4 5 C-2.0625 2.25 -2.0625 2.25 0 0 Z " fill="#4F95C2" transform="translate(141,234)"/>
</svg>
