<?xml version="1.0" encoding="UTF-8"?>
<svg version="1.1" xmlns="http://www.w3.org/2000/svg" width="819" height="819">
<path d="M0 0 C1.54950843 0.07671912 3.09928686 0.14818511 4.64929199 0.21411133 C24.21543508 1.08127662 24.21543508 1.08127662 31.40716553 8.61608887 C37.21930602 16.19679628 38.02667234 26.20851909 39.46966553 35.36608887 C39.6852609 36.70568268 39.90133362 38.04519974 40.11785889 39.38464355 C40.55595405 42.10477686 40.98898639 44.82564669 41.41790771 47.54724121 C41.96853303 51.02651042 42.53302691 54.50314449 43.10247803 57.97937012 C45.61976858 73.56894926 47.48189391 89.21503738 49.27761841 104.89955139 C50.09912651 112.05525072 50.95993281 119.2058258 51.84588623 126.3538208 C52.08301184 128.2718272 52.31647262 130.19028563 52.54974365 132.10876465 C53.37976014 138.78362897 54.33029439 145.42619071 55.40325928 152.06530762 C57.5077533 165.11192514 59.24574343 178.21042204 61.03216553 191.30358887 C61.71879871 196.321937 62.40656692 201.34012898 63.09466553 206.35827637 C63.2602597 207.56772919 63.42585388 208.77718201 63.59646606 210.02328491 C64.60461528 217.3704452 65.63825933 224.71344744 66.69622803 232.05358887 C67.67929268 238.87868947 68.59687586 245.70554795 69.40716553 252.55358887 C70.83805287 264.32683845 72.52034661 276.06105401 74.230896 287.79626465 C75.349977 295.49793919 76.39361144 303.20211195 77.33857727 310.92713928 C77.95561918 315.92896888 78.69898889 320.89652205 79.53216553 325.86608887 C85.5888506 363.42292686 85.5888506 363.42292686 80.03216553 372.42858887 C75.59038718 377.10831963 70.83061284 377.44441145 64.71966553 378.17858887 C63.78831787 378.30362793 62.85697021 378.42866699 61.8973999 378.55749512 C59.61047809 378.86241803 57.32268828 379.15226173 55.03216553 379.42858887 C55.03216553 380.08858887 55.03216553 380.74858887 55.03216553 381.42858887 C55.98091553 382.29483887 56.92966553 383.16108887 57.90716553 384.05358887 C77.77544135 403.59945859 82.02622797 433.55481305 82.27227783 460.08796692 C82.27895981 460.95136499 82.28564178 461.81476307 82.29252625 462.70432472 C82.31378276 465.43275769 82.34077908 468.1610829 82.36920166 470.88945007 C82.43857064 477.65707915 82.49846626 484.42478527 82.55822754 491.19250488 C82.60923164 496.93254647 82.66404429 502.67252648 82.7240448 508.41248131 C82.75052737 511.09628323 82.77138717 513.7800914 82.79205322 516.46394348 C82.80865765 518.10946942 82.82552962 519.75499269 82.8427124 521.4005127 C82.84689682 522.14293716 82.85108124 522.88536163 82.85539246 523.65028381 C82.90126475 527.44818834 83.27895569 530.66253968 84.03216553 534.42858887 C17.70216553 534.42858887 -48.62783447 534.42858887 -116.96783447 534.42858887 C-116.63783447 532.77858887 -116.30783447 531.12858887 -115.96783447 529.42858887 C-115.85780709 527.55842041 -115.79265501 525.68529356 -115.76251221 523.81213379 C-115.74256699 522.71137009 -115.72262177 521.61060638 -115.70207214 520.47648621 C-115.68535965 519.29923477 -115.66864716 518.12198334 -115.65142822 516.90905762 C-115.63064713 515.69534988 -115.60986603 514.48164215 -115.5884552 513.2311554 C-115.52314531 509.35952336 -115.46416084 505.48782431 -115.40533447 501.61608887 C-115.36213162 498.98912885 -115.31851676 496.36217558 -115.2744751 493.73522949 C-115.16748289 487.29975316 -115.06568211 480.86421038 -114.96783447 474.42858887 C-115.71077759 474.63667679 -116.4537207 474.84476471 -117.21917725 475.05915833 C-118.20035522 475.33100449 -119.1815332 475.60285065 -120.19244385 475.88293457 C-121.64717102 476.28787895 -121.64717102 476.28787895 -123.13128662 476.70100403 C-126.89172974 477.66557136 -130.61199309 478.2172721 -134.46783447 478.61608887 C-135.2006665 478.69504395 -135.93349854 478.77399902 -136.6885376 478.85534668 C-162.93299509 481.52603817 -188.455842 475.54809841 -209.58502197 459.37780762 C-220.96516093 450.06848083 -228.70730825 438.19906531 -235.85699463 425.52941895 C-240.07988599 418.09578955 -244.74545073 411.19257179 -249.96783447 404.42858887 C-250.59045166 403.59714355 -251.21306885 402.76569824 -251.85455322 401.90905762 C-257.75120302 394.69672531 -265.22384398 389.44514701 -272.69366455 383.96032715 C-273.5859375 383.30274414 -274.47821045 382.64516113 -275.39752197 381.96765137 C-276.20431396 381.38193359 -277.01110596 380.79621582 -277.84234619 380.19274902 C-281.50834383 377.14996256 -282.84963948 375.34460003 -283.46783447 370.55358887 C-283.2788076 365.72890296 -281.4493162 363.67797181 -277.96783447 360.42858887 C-270.84002469 356.98269407 -263.4441233 357.72414294 -256.03033447 359.99108887 C-236.36128514 367.24293759 -223.11358877 381.31180964 -211.37017822 398.03796387 C-208.10426616 402.67579219 -204.66651531 407.12647642 -200.96783447 411.42858887 C-200.24467041 412.27163574 -199.52150635 413.11468262 -198.77642822 413.98327637 C-188.01538586 425.64845903 -172.51372741 433.00150622 -156.60455322 433.66687012 C-142.3267536 433.98470032 -124.45231783 433.26128018 -112.88189697 423.70593262 C-110.54090189 420.92062622 -109.73781909 418.45897596 -108.65533447 414.99108887 C-103.51848358 399.99955424 -95.23029883 388.42729528 -83.96783447 377.42858887 C-84.87533447 377.03671387 -85.78283447 376.64483887 -86.71783447 376.24108887 C-90.26172591 374.26468787 -91.77447652 372.8149081 -93.96783447 369.42858887 C-95.8083612 357.86370442 -93.36515754 345.15104563 -92.17437744 333.61047363 C-91.27967717 324.91212103 -90.57269463 316.21927493 -90.03033447 307.49108887 C-89.39347698 297.52622139 -88.51229978 287.60658315 -87.46722412 277.67810059 C-85.3341541 257.36851763 -83.69292383 237.02639565 -82.09846878 216.66910934 C-80.35310566 194.3915384 -78.5335319 172.12177742 -76.61627197 149.85827637 C-76.51480803 148.67950613 -76.41334408 147.50073589 -76.30880547 146.28624535 C-75.29402767 134.5037996 -74.27404689 122.72181346 -73.24727631 110.9404068 C-72.86200476 106.51421103 -72.47883208 102.08783495 -72.09601212 97.66142654 C-71.83279679 94.62784676 -71.56649772 91.59454864 -71.30007935 88.56124878 C-70.48105872 79.14021232 -69.74913036 69.72774357 -69.28265667 60.28195858 C-67.22316371 18.66456753 -67.22316371 18.66456753 -53.89752197 6.54577637 C-39.35586675 -3.9424558 -16.95957684 -0.84234712 0 0 Z M-17.96783447 73.42858887 C-20.03275797 77.64349322 -20.54200486 81.86487821 -20.99517822 86.47937012 C-21.07710922 87.26459549 -21.15904022 88.04982086 -21.24345398 88.85884094 C-22.18139445 98.09702761 -22.86273329 107.35521699 -23.53033447 116.61608887 C-23.65699445 118.33420946 -23.78394697 120.05230851 -23.91119385 121.77038574 C-24.21602205 125.90057194 -24.51211125 130.03132455 -24.80484009 134.16238403 C-24.95676071 136.27462392 -25.11612035 138.3861575 -25.27764893 140.49768066 C-25.89859936 148.96863044 -26.09156444 157.37396338 -26.03033447 165.86608887 C-26.02582275 167.08618652 -26.02131104 168.30628418 -26.0166626 169.56335449 C-26.00507384 172.5184882 -25.98876508 175.47350917 -25.96783447 178.42858887 C-19.93191088 180.03799154 -14.56816621 180.69145627 -8.34283447 180.24108887 C-7.27549072 180.19371582 -7.27549072 180.19371582 -6.18658447 180.14538574 C-1.19603924 179.83004909 2.53726859 178.61704919 7.03216553 176.42858887 C7.50629536 164.26949992 6.06918603 152.31209662 4.78216553 140.24108887 C4.55364621 138.0589859 4.32537697 135.87685673 4.09735107 133.69470215 C3.42238096 127.27119346 2.73087092 120.84955541 2.03216553 114.42858887 C1.93123596 113.49959778 1.8303064 112.57060669 1.72631836 111.61346436 C1.19389233 106.72882089 0.6516053 101.84545575 0.09210205 96.96383667 C-0.07107256 95.53923864 -0.23264861 94.11445647 -0.39251709 92.68948364 C-1.10769137 80.98026693 -1.10769137 80.98026693 -6.28033447 70.99108887 C-11.4496416 67.98567775 -14.32486043 68.78065647 -17.96783447 73.42858887 Z M-20.96783447 246.42858887 C-24.44537111 252.86203165 -24.13747895 261.09556009 -24.44854736 268.27209473 C-24.48770767 269.11712051 -24.52686798 269.9621463 -24.56721497 270.83277893 C-24.69475884 273.60286455 -24.81774001 276.37313079 -24.94049072 279.14343262 C-25.02852373 281.08342974 -25.11677909 283.02341678 -25.20524597 284.96339417 C-25.3895788 289.02063437 -25.57174059 293.07796428 -25.7522583 297.13537598 C-25.98293576 302.31794318 -26.21822076 307.50028834 -26.45504093 312.68257809 C-26.637629 316.68637616 -26.81816144 320.69026484 -26.99804497 324.69418526 C-27.08402565 326.60424777 -27.17054108 328.5142863 -27.25761604 330.42429924 C-27.37926847 333.10134315 -27.49824606 335.77849327 -27.61651611 338.45568848 C-27.65234802 339.23362762 -27.68817993 340.01156677 -27.72509766 340.81307983 C-27.95196501 346.03379513 -27.96783447 351.19129716 -27.96783447 356.42858887 C-13.44783447 356.42858887 1.07216553 356.42858887 16.03216553 356.42858887 C13.61063699 314.61125539 13.61063699 314.61125539 10.33773804 272.85385132 C10.1772844 271.04663777 10.02204518 269.23895272 9.87234497 267.43081665 C9.27203412 254.20266878 9.27203412 254.20266878 4.03216553 242.42858887 C-4.51956472 237.16647509 -14.57303476 238.57212065 -20.96783447 246.42858887 Z " fill="#3E9CE0" transform="translate(425.96783447265625,159.5714111328125)"/>
<path d="M0 0 C54.68604181 27.3981594 54.68604181 27.3981594 64.88671875 53.15234375 C70.29021225 69.66197959 75.79761042 93.12918869 68.015625 109.6015625 C67.69464844 110.2821875 67.37367188 110.9628125 67.04296875 111.6640625 C62.43092995 119.25687236 53.65323982 122.72612208 46.015625 126.6015625 C45.34160645 126.95734375 44.66758789 127.313125 43.97314453 127.6796875 C28.77116768 135.69765512 28.77116768 135.69765512 21.015625 133.6015625 C16.65013072 130.69123298 15.61861045 127.86562524 14.44873047 122.87109375 C13.55386886 118.18189787 13.25509191 113.42262323 12.89257812 108.66796875 C12.30753672 102.16399497 11.27123398 96.1077947 6.765625 91.1015625 C3.0738964 89.08789236 1.17897223 88.89591043 -2.984375 89.6015625 C-11.43913668 93.27029538 -14.67026809 101.57972423 -17.984375 109.6015625 C-19.58865525 113.87964317 -20.83381427 118.18098707 -21.984375 122.6015625 C-22.18272949 123.34229004 -22.38108398 124.08301758 -22.58544922 124.84619141 C-25.25545739 134.90975742 -27.36684115 144.96413836 -28.734375 155.2890625 C-28.84982666 156.15321777 -28.96527832 157.01737305 -29.08422852 157.90771484 C-31.10764467 174.51537463 -31.22338066 191.26772048 -31.27954102 207.97485352 C-31.29101894 210.33494075 -31.31140352 212.69500289 -31.34106445 215.05493164 C-31.66293555 240.84597732 -31.47279714 273.04773167 -14.984375 294.6015625 C-11.18309123 297.13575168 -9.48741468 297.28846686 -4.984375 296.6015625 C1.23981059 292.2800308 3.28188809 284.59387115 5.015625 277.6015625 C5.87251581 271.30390304 6.26037478 264.9858842 6.65185547 258.64501953 C7.74647689 241.61210421 7.74647689 241.61210421 13.41723633 234.95654297 C16.19426501 232.6024099 19.51616272 232.53146421 23.015625 232.6015625 C25.91576652 233.17898486 28.58000515 234.14710204 31.328125 235.2265625 C32.06724121 235.50363037 32.80635742 235.78069824 33.56787109 236.06616211 C54.39657737 243.9841569 54.39657737 243.9841569 59.828125 250.9140625 C70.19514474 274.37626508 60.71902941 315.47662475 52.31640625 338.58984375 C50.78477602 342.40766369 48.99288455 345.99469343 47.015625 349.6015625 C46.46003906 350.63023437 45.90445313 351.65890625 45.33203125 352.71875 C39.55014818 362.57332208 31.71487244 369.4742038 21.015625 373.6015625 C3.05549689 377.93962421 -13.29471422 367.88857753 -28.109375 358.8515625 C-39.6178803 351.63274432 -49.68324959 342.46525598 -58.984375 332.6015625 C-59.561875 332.00601562 -60.139375 331.41046875 -60.734375 330.796875 C-95.96041852 292.79841139 -101.82150149 235.02573927 -100.07226562 185.66448975 C-98.72393134 154.01702412 -90.21357257 119.86946105 -70.984375 94.1015625 C-68.05286014 90.04151458 -67.16375174 87.70766276 -67.984375 82.6015625 C-68.30105767 81.10106934 -68.62031506 79.60111847 -68.94140625 78.1015625 C-74.28338458 51.40380621 -72.81498103 22.16480082 -64.046875 -3.6484375 C-63.80614258 -4.36459229 -63.56541016 -5.08074707 -63.31738281 -5.81860352 C-61.85269476 -9.86789218 -60.38398044 -12.71068682 -56.984375 -15.3984375 C-40.28403119 -20.96521877 -14.64596227 -7.26174696 0 0 Z " fill="#3E9CDF" transform="translate(263.984375,147.3984375)"/>
<path d="M0 0 C4.23656655 6.18941193 6.35597794 13.55455615 8.1875 20.75 C8.44160645 21.73863037 8.69571289 22.72726074 8.95751953 23.74584961 C11.47505184 34.08577304 12.49000212 44.3916025 13 55 C13.07089844 56.20269531 13.14179687 57.40539062 13.21484375 58.64453125 C13.50563055 68.26375857 12.0418675 77.75585151 10.75390625 87.265625 C10.62886719 88.2242041 10.50382813 89.1827832 10.375 90.17041016 C10.12692398 92.04228585 9.86154779 93.91195781 9.578125 95.77880859 C8.86869981 100.89583361 8.86869981 100.89583361 10.1171875 105.8203125 C10.98730469 106.96113281 10.98730469 106.96113281 11.875 108.125 C12.5246875 109.05054688 13.174375 109.97609375 13.84375 110.9296875 C14.5553125 111.94289063 15.266875 112.95609375 16 114 C26.97289946 131.12769853 34.01923455 150.11816593 38 170 C38.41361727 171.62577885 38.82968843 173.25093895 39.25 174.875 C40.40213962 180.31859547 41.59099508 186.81800983 39.01953125 191.9609375 C36.8262406 194.72785801 34.43248739 197.11736038 31 198 C23.98607961 197.88866793 23.98607961 197.88866793 20.74609375 194.96875 C19.82444776 193.98501418 18.90995504 192.99455986 18 192 C16.72999992 190.66717427 15.4590919 189.33521337 14.1875 188.00390625 C12.79083008 186.52422671 11.39501581 185.04373911 10 183.5625 C9.30132813 182.82451172 8.60265625 182.08652344 7.8828125 181.32617188 C4.90668478 178.16754576 1.96890436 175.01921338 -0.76171875 171.64453125 C-2.69126156 169.36477474 -4.34989933 167.76673378 -6.8125 166.125 C-7.864375 165.42375 -8.91625 164.7225 -10 164 C-9.67 164.66 -9.34 165.32 -9 166 C-8.90092542 168.31898617 -8.86927049 170.64092119 -8.86628723 172.96202087 C-8.86402167 173.68692437 -8.86175612 174.41182787 -8.85942191 175.15869814 C-8.85306549 177.60052501 -8.85391235 180.04229661 -8.85473633 182.48413086 C-8.85174566 184.23010327 -8.84834335 185.97607502 -8.84455872 187.7220459 C-8.83570023 192.47665017 -8.83337969 197.23123646 -8.83274293 201.98584819 C-8.83179435 205.95646816 -8.82811623 209.92708392 -8.82457083 213.89770228 C-8.81641754 223.27303089 -8.81398721 232.64834989 -8.81469727 242.02368164 C-8.81529676 251.68243301 -8.80477265 261.34112829 -8.7889536 270.99986547 C-8.77585159 279.2964024 -8.77051456 287.59292107 -8.77115268 295.88946825 C-8.77140709 300.84234209 -8.76858776 305.79516621 -8.75797462 310.74802971 C-8.7482501 315.41423217 -8.74824419 320.08033789 -8.75549126 324.74654388 C-8.75653204 326.45284988 -8.75420449 328.15916203 -8.7481308 329.86545753 C-8.66475014 354.92821467 -8.66475014 354.92821467 -15.3359375 362.62890625 C-25.0938035 371.31369315 -37.23745526 377.32100181 -48.8125 383.1875 C-49.73683838 383.65720215 -50.66117676 384.1269043 -51.61352539 384.61083984 C-62.07114653 389.7574621 -62.07114653 389.7574621 -68.625 388.0625 C-72.00441982 385.997299 -73.78430203 384.38917674 -75.36157227 380.73291016 C-76.18960566 377.18835728 -76.20215481 373.7646285 -76.15234375 370.1484375 C-76.1439296 369.01900726 -76.1439296 369.01900726 -76.13534546 367.86676025 C-76.05859365 361.18330004 -75.69461089 354.52705901 -75.25921631 347.85791016 C-71.40897573 287.38864744 -71.28436172 226.61329884 -72.4375 166.0625 C-72.45696686 165.03848083 -72.47643372 164.01446167 -72.49649048 162.95941162 C-72.62833121 156.3050774 -72.79635881 149.65251781 -73 143 C-73.02991028 141.99410828 -73.05982056 140.98821655 -73.09063721 139.95184326 C-73.18580592 136.92440426 -73.29547108 133.89785048 -73.41015625 130.87109375 C-73.43887314 129.95240005 -73.46759003 129.03370636 -73.49717712 128.08717346 C-73.74693113 121.81021756 -73.74693113 121.81021756 -76 116 C-80.15890087 112.64466257 -84.60473231 110.84649991 -89.625 109.1875 C-90.34993652 108.93814697 -91.07487305 108.68879395 -91.82177734 108.43188477 C-95.08447577 107.31100225 -98.35487011 106.21424447 -101.62890625 105.12695312 C-103.41867975 104.53166456 -105.20693885 103.93180349 -106.99365234 103.32739258 C-108.7039892 102.74897563 -110.4177408 102.18052615 -112.13525391 101.6237793 C-118.86017698 99.34320667 -124.73250073 96.79482072 -128.328125 90.375 C-130.5006137 85.42784022 -131.14832418 80.33242973 -131.75 75 C-131.93103271 73.48792969 -131.93103271 73.48792969 -132.11572266 71.9453125 C-134.66179646 49.30074097 -134.66179646 49.30074097 -130 40 C-127.21711109 37.21711109 -124.8637443 36.47411249 -121 36 C-117.87890625 36.55859375 -117.87890625 36.55859375 -114.5625 37.4375 C-107.99754973 39.16593437 -103.65304517 40.15332215 -97.6015625 36.69140625 C-95.93508076 35.66066885 -94.27657734 34.61695401 -92.625 33.5625 C-90.83175394 32.45276941 -89.03747018 31.34471403 -87.2421875 30.23828125 C-85.9113916 29.41191162 -85.9113916 29.41191162 -84.55371094 28.56884766 C-78.48575854 24.84105969 -72.2652795 21.38328276 -66 18 C-65.04262939 17.48228027 -65.04262939 17.48228027 -64.06591797 16.95410156 C-53.40854983 11.25483113 -42.45093931 6.84373798 -31 3 C-29.84322754 2.61038086 -29.84322754 2.61038086 -28.66308594 2.21289062 C-7.6753578 -4.73243157 -7.6753578 -4.73243157 0 0 Z " fill="#3E9CDF" transform="translate(614,133)"/>
<path d="M0 0 C1.54950843 0.07671912 3.09928686 0.14818511 4.64929199 0.21411133 C24.21543508 1.08127662 24.21543508 1.08127662 31.40716553 8.61608887 C37.21945739 16.19699372 38.02619548 26.20841346 39.46966553 35.36608887 C39.68301683 36.68811233 39.89689212 38.01005133 40.11126709 39.33190918 C40.65583807 42.70451367 41.19036014 46.07861939 41.72106934 49.45343018 C42.0228507 51.36944876 42.32751122 53.28501318 42.63226318 55.20056152 C43.18718611 58.69248109 43.73647708 62.18521516 44.28216553 65.67858887 C44.44515137 66.71749268 44.60813721 67.75639648 44.77606201 68.82678223 C46.19346771 78.06290218 47.18295599 87.0795799 47.03216553 96.42858887 C46.37216553 96.09858887 45.71216553 95.76858887 45.03216553 95.42858887 C43.90494788 91.47241853 43.86883924 87.52021082 43.71966553 83.42858887 C43.35338248 75.80397635 42.00665687 68.51083125 40.480896 61.04284668 C39.24208234 54.87726999 38.49018089 48.92150276 38.20794678 42.63171387 C38.27388497 40.45409918 38.27388497 40.45409918 37.03216553 39.42858887 C36.77187216 38.05078419 36.56546728 36.66268746 36.38372803 35.27233887 C36.2058374 33.98456543 36.2058374 33.98456543 36.02435303 32.67077637 C35.78380927 30.87437508 35.54670097 29.07750965 35.31341553 27.28015137 C34.17211877 18.55886221 34.17211877 18.55886221 31.03216553 10.42858887 C29.0155639 9.15716765 29.0155639 9.15716765 27.03216553 8.42858887 C27.03216553 7.76858887 27.03216553 7.10858887 27.03216553 6.42858887 C26.35154053 6.30483887 25.67091553 6.18108887 24.96966553 6.05358887 C22.03216553 5.42858887 22.03216553 5.42858887 18.81341553 4.42858887 C11.70162788 2.54778552 4.35113145 2.6252178 -2.96783447 2.42858887 C-4.20098389 2.39458984 -5.4341333 2.36059082 -6.70465088 2.32556152 C-10.17250192 2.23782469 -13.6400084 2.18237703 -17.10873413 2.14349365 C-18.4930147 2.12550688 -19.87722862 2.10094306 -21.26126099 2.06915283 C-32.50285698 1.82633313 -44.29328949 2.50800518 -53.59283447 9.55358887 C-57.5965211 13.53161084 -59.31171783 18.12409644 -60.96783447 23.42858887 C-61.3004126 24.2626123 -61.63299072 25.09663574 -61.97564697 25.95593262 C-63.47423303 31.20098383 -63.91084499 36.5128033 -64.46783447 41.92858887 C-64.59601563 43.13184814 -64.72419678 44.33510742 -64.85626221 45.5748291 C-67.18848141 67.72432329 -69.12525238 89.92843218 -70.43267822 112.16296387 C-71.79558164 135.22573405 -71.79558164 135.22573405 -73.40533447 146.11608887 C-75.1929472 158.30641066 -75.86830436 170.56634228 -76.65505981 182.85229492 C-77.40554365 194.54982809 -78.25023134 206.20644815 -79.46783447 217.86608887 C-81.01068376 232.69340606 -81.97027829 247.54658564 -82.87799072 262.42443848 C-83.44883783 271.62423403 -84.17118329 280.76124366 -85.25727844 289.91493225 C-86.25747461 298.54069775 -86.658074 307.19533112 -87.07232666 315.86560059 C-87.17617552 317.99640769 -87.29021109 320.1264905 -87.40533447 322.25671387 C-87.46592041 323.49324707 -87.52650635 324.72978027 -87.58892822 326.00378418 C-87.96579477 329.41015273 -88.79984899 332.21936312 -89.96783447 335.42858887 C-91.14722772 343.19478211 -91.08593292 351.14871318 -91.15533447 358.99108887 C-91.16838623 359.86007812 -91.18143799 360.72906738 -91.19488525 361.62438965 C-91.19657715 362.85971436 -91.19657715 362.85971436 -91.19830322 364.11999512 C-91.20241211 364.85419678 -91.206521 365.58839844 -91.21075439 366.34484863 C-90.92609685 368.78660954 -90.2842892 370.35731831 -88.96783447 372.42858887 C-86.43013444 373.7111353 -86.43013444 373.7111353 -83.96783447 374.42858887 C-83.96783447 375.08858887 -83.96783447 375.74858887 -83.96783447 376.42858887 C-88.96229318 375.17997419 -91.18608542 373.77097658 -93.96783447 369.42858887 C-95.8083612 357.86370442 -93.36515754 345.15104563 -92.17437744 333.61047363 C-91.27967717 324.91212103 -90.57269463 316.21927493 -90.03033447 307.49108887 C-89.39347698 297.52622139 -88.51229978 287.60658315 -87.46722412 277.67810059 C-85.3341541 257.36851763 -83.69292383 237.02639565 -82.09846878 216.66910934 C-80.35310566 194.3915384 -78.5335319 172.12177742 -76.61627197 149.85827637 C-76.51480803 148.67950613 -76.41334408 147.50073589 -76.30880547 146.28624535 C-75.29402767 134.5037996 -74.27404689 122.72181346 -73.24727631 110.9404068 C-72.86200476 106.51421103 -72.47883208 102.08783495 -72.09601212 97.66142654 C-71.83279679 94.62784676 -71.56649772 91.59454864 -71.30007935 88.56124878 C-70.48105872 79.14021232 -69.74913036 69.72774357 -69.28265667 60.28195858 C-67.22316371 18.66456753 -67.22316371 18.66456753 -53.89752197 6.54577637 C-39.35586675 -3.9424558 -16.95957684 -0.84234712 0 0 Z " fill="#5399C6" transform="translate(425.96783447265625,159.5714111328125)"/>
<path d="M0 0 C0.66 0.33 1.32 0.66 2 1 C1.2884375 1.6496875 1.2884375 1.6496875 0.5625 2.3125 C-4.42493613 7.69893102 -2.31795504 19.13563383 -2.14501953 25.96386719 C-1.91859872 30.70421932 -1.3768508 35.36903839 -0.6875 40.0625 C-0.56987305 40.88806396 -0.45224609 41.71362793 -0.33105469 42.56420898 C0.39633844 47.03321188 1.42724527 50.18771078 4 54 C4 54.66 4 55.32 4 56 C4.72960937 56.29003906 5.45921875 56.58007812 6.2109375 56.87890625 C7.90885399 57.56140209 9.6027858 58.25407524 11.2890625 58.96484375 C17.41098754 61.51393963 23.57116491 63.38668017 30 65 C30 65.66 30 66.32 30 67 C31.6396875 67.0928125 31.6396875 67.0928125 33.3125 67.1875 C38.13502795 67.77853806 42.11075568 69.62942894 46.44140625 71.76171875 C49.11392168 73.12283606 49.11392168 73.12283606 52.5625 74.1875 C55.99953775 76.74324602 55.87197816 79.1361368 56.60028076 83.22177124 C57.21365447 87.48499477 57.46957606 91.71804702 57.6328125 96.01953125 C57.67455597 96.99330215 57.71629944 97.96707306 57.75930786 98.97035217 C57.89341407 102.25072653 58.0112249 105.53135966 58.125 108.8125 C58.18753967 110.55530243 58.18753967 110.55530243 58.25134277 112.33331299 C59.99597024 162.632252 59.65371693 213.07704302 58.0625 263.375 C58.04075211 264.06892601 58.01900421 264.76285202 57.99659729 265.47780609 C57.85334424 270.01424702 57.69816734 274.55015542 57.53515625 279.0859375 C57.49654984 280.20158081 57.45794342 281.31722412 57.41816711 282.4666748 C57.21455693 287.71593164 56.82766891 292.80463249 56 298 C55.86890718 299.58402528 55.76104778 301.17026021 55.68359375 302.7578125 C55.64137695 303.62092041 55.59916016 304.48402832 55.55566406 305.37329102 C55.18089489 314.10061188 54.86186945 322.82742493 54.75 331.5625 C54.7286499 332.43600098 54.7072998 333.30950195 54.68530273 334.20947266 C54.65957783 338.96437068 54.86441465 342.15662475 58 346 C61.5209856 347.7604928 65.19581629 347.53224956 69 347 C71.9833077 345.82812813 74.78087039 344.48697838 77.6171875 342.99609375 C80 342 80 342 83 343 C80.7965194 344.1560727 78.58796844 345.29984721 76.375 346.4375 C75.44880859 346.92573242 75.44880859 346.92573242 74.50390625 347.42382812 C69.19018855 350.13662085 65.22282722 351.57486911 59.375 350.0625 C55.99558018 347.997299 54.21569797 346.38917674 52.63842773 342.73291016 C51.81039434 339.18835728 51.79784519 335.7646285 51.84765625 332.1484375 C51.8560704 331.01900726 51.8560704 331.01900726 51.86465454 329.86676025 C51.94140635 323.18330004 52.30538911 316.52705901 52.74078369 309.85791016 C56.59102427 249.38864744 56.71563828 188.61329884 55.5625 128.0625 C55.54303314 127.03848083 55.52356628 126.01446167 55.50350952 124.95941162 C55.37166879 118.3050774 55.20364119 111.65251781 55 105 C54.97008972 103.99410828 54.94017944 102.98821655 54.90936279 101.95184326 C54.81419408 98.92440426 54.70452892 95.89785048 54.58984375 92.87109375 C54.56112686 91.95240005 54.53240997 91.03370636 54.50282288 90.08717346 C54.25306887 83.81021756 54.25306887 83.81021756 52 78 C47.84109913 74.64466257 43.39526769 72.84649991 38.375 71.1875 C37.65006348 70.93814697 36.92512695 70.68879395 36.17822266 70.43188477 C32.91552423 69.31100225 29.64512989 68.21424447 26.37109375 67.12695312 C24.58132025 66.53166456 22.79306115 65.93180349 21.00634766 65.32739258 C19.2960108 64.74897563 17.5822592 64.18052615 15.86474609 63.6237793 C9.13982302 61.34320667 3.26749927 58.79482072 -0.328125 52.375 C-2.5006137 47.42784022 -3.14832418 42.33242973 -3.75 37 C-3.87068848 35.99195313 -3.99137695 34.98390625 -4.11572266 33.9453125 C-6.66387553 11.28224984 -6.66387553 11.28224984 -2 2 C-1.34 1.34 -0.68 0.68 0 0 Z " fill="#5699C6" transform="translate(486,171)"/>
<path d="M0 0 C1.03447266 -0.08121094 1.03447266 -0.08121094 2.08984375 -0.1640625 C4.95304248 -0.24070644 7.18889501 -0.08460053 9.41796875 1.81469727 C12.63420899 5.94458884 13.90011206 10.29421887 14.625 15.4375 C14.80083618 16.54013184 14.80083618 16.54013184 14.98022461 17.66503906 C15.83698932 23.3541027 16.26441302 29.03799812 16.53222656 34.78149414 C16.72363057 38.72509343 17.15860217 42.49494753 17.875 46.375 C19.25071555 54.40510262 19.31258563 62.52165064 19.53320312 70.65185547 C19.56478516 71.74900879 19.59636719 72.84616211 19.62890625 73.9765625 C19.65283447 74.96736816 19.6767627 75.95817383 19.70141602 76.97900391 C19.77802146 79.62625306 19.77802146 79.62625306 20.875 82.5 C21.01318815 84.37355347 21.09992355 86.2511081 21.15625 88.12890625 C21.19363281 89.24716797 21.23101562 90.36542969 21.26953125 91.51757812 C21.32173828 93.27231445 21.32173828 93.27231445 21.375 95.0625 C21.61418176 102.91563436 21.95933049 110.69347297 22.875 118.5 C19.80769559 120.54486961 19.18307783 120.75125915 15.7265625 120.75878906 C14.89560059 120.76509338 14.06463867 120.77139771 13.20849609 120.77789307 C12.31469238 120.7738446 11.42088867 120.76979614 10.5 120.765625 C9.57912598 120.76753845 8.65825195 120.7694519 7.70947266 120.77142334 C5.76269253 120.77278421 3.81590331 120.76909463 1.86914062 120.76074219 C-1.11348828 120.7500413 -4.09551486 120.76064082 -7.078125 120.7734375 C-8.96875133 120.77211589 -10.85937729 120.76955346 -12.75 120.765625 C-13.64380371 120.76967346 -14.53760742 120.77372192 -15.45849609 120.77789307 C-16.70493896 120.76843658 -16.70493896 120.76843658 -17.9765625 120.75878906 C-18.70697754 120.75719788 -19.43739258 120.75560669 -20.18994141 120.75396729 C-22.125 120.5 -22.125 120.5 -25.125 118.5 C-25.42329407 116.38490295 -25.42329407 116.38490295 -25.3137207 113.72290039 C-25.27982239 112.71915878 -25.24592407 111.71541718 -25.21099854 110.68125916 C-25.13169098 109.03112572 -25.13169098 109.03112572 -25.05078125 107.34765625 C-25.00765808 106.20079849 -24.96453491 105.05394073 -24.92010498 103.87232971 C-24.77439157 100.10160779 -24.60652696 96.33224331 -24.4375 92.5625 C-24.33088583 89.97123497 -24.22534188 87.37992569 -24.12084961 84.78857422 C-23.90651241 79.54206027 -23.68251379 74.29608369 -23.45117188 69.05029297 C-23.19608204 63.23334038 -22.96595124 57.41598334 -22.75337219 51.59733582 C-22.60919003 47.68139193 -22.45392449 43.76594655 -22.29550171 39.85055542 C-22.22425762 38.05262357 -22.15665223 36.25454335 -22.09292603 34.45632935 C-21.75475422 25.10861706 -21.27569811 16.4164135 -18.125 7.5 C-17.465 7.5 -16.805 7.5 -16.125 7.5 C-15.795 5.52 -15.465 3.54 -15.125 1.5 C-10.07860356 0.70944181 -5.10570376 0.17372905 0 0 Z M-16.125 8.5 C-19.60253664 14.93344278 -19.29464447 23.16697122 -19.60571289 30.34350586 C-19.6448732 31.18853165 -19.68403351 32.03355743 -19.72438049 32.90419006 C-19.85192437 35.67427568 -19.97490554 38.44454192 -20.09765625 41.21484375 C-20.18568925 43.15484087 -20.27394462 45.09482791 -20.3624115 47.0348053 C-20.54674433 51.0920455 -20.72890612 55.14937541 -20.90942383 59.20678711 C-21.14010129 64.38935432 -21.37538629 69.57169948 -21.61220646 74.75398922 C-21.79479453 78.75778729 -21.97532696 82.76167598 -22.15521049 86.76559639 C-22.24119118 88.6756589 -22.32770661 90.58569743 -22.41478157 92.49571037 C-22.536434 95.17275428 -22.65541159 97.84990441 -22.77368164 100.52709961 C-22.80951355 101.30503876 -22.84534546 102.08297791 -22.88226318 102.88449097 C-23.10913053 108.10520626 -23.125 113.2627083 -23.125 118.5 C-8.605 118.5 5.915 118.5 20.875 118.5 C18.45347146 76.68266653 18.45347146 76.68266653 15.18057251 34.92526245 C15.02011888 33.1180489 14.86487965 31.31036385 14.71517944 29.50222778 C14.1148686 16.27407991 14.1148686 16.27407991 8.875 4.5 C0.32326975 -0.76211378 -9.73020029 0.64353178 -16.125 8.5 Z " fill="#539AC6" transform="translate(421.125,397.5)"/>
<path d="M0 0 C0.99 0.33 1.98 0.66 3 1 C2.071875 2.1446875 2.071875 2.1446875 1.125 3.3125 C-3.84102583 10.80185093 -3.42140153 21.62694794 -4 30.3125 C-4.16515358 32.64463889 -4.33184017 34.97666969 -4.5 37.30859375 C-4.5825 38.45312012 -4.665 39.59764648 -4.75 40.77685547 C-4.96395376 43.53527105 -5.21359319 46.28352522 -5.5 49.03515625 C-7.60628894 69.28714491 -8.16310089 89.664159 -9 110 C-6.80248013 110.17814147 -4.60445843 110.35009791 -2.40625 110.51953125 C-0.57030273 110.66418823 -0.57030273 110.66418823 1.30273438 110.81176758 C8.97286816 111.20226369 15.7505654 110.48964796 23 108 C23.47412984 95.84091106 22.0370205 83.88350775 20.75 71.8125 C20.52148068 69.63039703 20.29321145 67.44826786 20.06518555 65.26611328 C19.39021544 58.84260459 18.69870539 52.42096654 18 46 C17.89907043 45.07100891 17.79814087 44.14201782 17.69415283 43.18487549 C17.16172681 38.30023202 16.61943977 33.41686689 16.05993652 28.5352478 C15.89676192 27.11064977 15.73518586 25.68586761 15.57531738 24.26089478 C15.00728448 12.88592456 15.00728448 12.88592456 10.125 3.1875 C8.10771905 2.06019594 6.09623979 0.97325419 4 0 C8.56984933 0.43940859 11.64877507 0.76334686 15 4 C15.6875 6.21484375 15.6875 6.21484375 16 8.9375 C16.51796857 12.82459744 17.11019442 16.64096546 17.97265625 20.46484375 C20.24925956 30.64362985 21.49892141 40.39739566 21.67211914 50.84130859 C21.6990686 52.15736084 21.6990686 52.15736084 21.7265625 53.5 C21.73252441 54.2734375 21.73848633 55.046875 21.74462891 55.84375 C21.86475008 58.01795354 21.86475008 58.01795354 22.97753906 59.77075195 C24.51220625 63.1167515 24.4735662 66.54495958 24.6328125 70.16796875 C24.67437469 70.96221756 24.71593689 71.75646637 24.75875854 72.57478333 C24.84510582 74.25480724 24.9272118 75.93505377 25.00537109 77.61547852 C25.12378997 80.16148432 25.25401501 82.70665583 25.38671875 85.25195312 C25.46944589 86.89059002 25.55149828 88.52926114 25.6328125 90.16796875 C25.67028595 90.9182988 25.7077594 91.66862885 25.74636841 92.44169617 C25.84732612 94.62754412 25.9280312 96.81301559 26 99 C26.03277039 99.80716461 26.06554077 100.61432922 26.0993042 101.44595337 C26.12918427 102.64313492 26.12918427 102.64313492 26.15966797 103.86450195 C26.18173309 104.58531448 26.20379822 105.30612701 26.22653198 106.04878235 C26 108 26 108 23.8125 111 C19.6690963 113.91535875 14.72898405 113.70272654 9.828125 113.859375 C7.04989471 113.80745166 7.04989471 113.80745166 5 115 C3.20568976 114.96297455 1.41249749 114.84803932 -0.375 114.6875 C-1.33148438 114.60886719 -2.28796875 114.53023438 -3.2734375 114.44921875 C-5.93730756 114.01032898 -7.72816911 113.4367515 -10 112 C-11.49068733 109.01862535 -11.12992595 106.30308916 -11.1328125 102.98046875 C-11.13376923 102.28488358 -11.13472595 101.5892984 -11.13571167 100.87263489 C-11.13639264 99.39905711 -11.13454415 97.92547633 -11.13037109 96.4519043 C-11.12504578 94.20679892 -11.1303063 91.96189581 -11.13671875 89.71679688 C-11.13605748 88.28385373 -11.13477531 86.85091071 -11.1328125 85.41796875 C-11.13168457 84.11625732 -11.13055664 82.8145459 -11.12939453 81.47338867 C-11.01756347 78.47146316 -10.58587429 75.92647382 -10 73 C-9.846268 71.45234454 -9.72268562 69.90144395 -9.62695312 68.34912109 C-9.57019409 67.45824799 -9.51343506 66.56737488 -9.45495605 65.64950562 C-9.39763306 64.70040314 -9.34031006 63.75130066 -9.28125 62.7734375 C-9.15235777 60.75260327 -9.02345109 58.73176997 -8.89453125 56.7109375 C-8.69598869 53.53327119 -8.49879543 50.35552457 -8.30224609 47.17773438 C-8.11104613 44.10525051 -7.91507908 41.0330972 -7.71875 37.9609375 C-7.661427 37.00778656 -7.604104 36.05463562 -7.54504395 35.07260132 C-7.4599054 33.74574814 -7.4599054 33.74574814 -7.37304688 32.39208984 C-7.32498901 31.61441254 -7.27693115 30.83673523 -7.22741699 30.03549194 C-7 28 -7 28 -6 25 C-5.83450864 23.59081598 -5.70672271 22.17696948 -5.60546875 20.76171875 C-5.53650391 19.94123047 -5.46753906 19.12074219 -5.39648438 18.27539062 C-5.2581749 16.5626798 -5.13040803 14.84908197 -5.01367188 13.13476562 C-4.52502895 7.60401957 -3.4945133 4.34510477 0 0 Z " fill="#5299C8" transform="translate(409,228)"/>
<path d="M0 0 C0.33 0 0.66 0 1 0 C1.62731681 4.64552293 2.25204689 9.29139011 2.875 13.9375 C2.96748016 14.62671539 3.05996033 15.31593079 3.15524292 16.02603149 C5.08863529 30.45726653 5.08863529 30.45726653 5.81323242 36.97949219 C6.50180684 43.07887225 7.31401683 49.12611881 8.30859375 55.18359375 C10.43098186 68.38171942 12.19297355 81.63081837 14 94.875 C14.68663318 99.89334813 15.37440139 104.91154011 16.0625 109.9296875 C16.22809418 111.13914032 16.39368835 112.34859314 16.56430054 113.59469604 C17.57244975 120.94185633 18.6060938 128.28485858 19.6640625 135.625 C20.64712602 142.45009276 21.56501992 149.27692636 22.375 156.125 C23.61484901 166.35741618 25.07583617 176.55138046 26.5625 186.75 C28.36806621 199.14222982 29.96094816 211.51586973 31 224 C30.34 224 29.68 224 29 224 C26.89458209 215.92923134 25.50607826 208.02328362 24.64697266 199.73852539 C24.26099106 195.84696495 24.26099106 195.84696495 23.48632812 192.02075195 C22.63886552 188.49944273 22.74900317 184.85756037 22.625 181.25 C22.29675466 173.70322394 21.34919313 166.65011654 19.828125 159.24609375 C17.5366591 147.9272296 15.97176709 136.28675882 15.2109375 124.765625 C15.1816003 122.97552261 15.1816003 122.97552261 14 122 C13.72355303 119.89121788 13.50745251 117.77447715 13.31640625 115.65625 C13.19330078 114.3465625 13.07019531 113.036875 12.94335938 111.6875 C12.7530566 109.60562177 12.56461782 107.52358977 12.37768555 105.44140625 C12.24056288 92.88963279 12.24056288 92.88963279 8 82 C7.83114576 80.59748756 7.72335235 79.18755973 7.640625 77.77734375 C7.57931396 76.86186768 7.51800293 75.9463916 7.45483398 75.00317383 C7.38723877 73.99150146 7.31964355 72.9798291 7.25 71.9375 C6.3914804 60.27362946 4.70395905 48.82863142 2.76464844 37.30639648 C1.02124281 26.79371344 -0.17972281 16.35477546 -0.0625 5.6875 C-0.05347656 4.59824219 -0.04445313 3.50898438 -0.03515625 2.38671875 C-0.02355469 1.59910156 -0.01195312 0.81148438 0 0 Z " fill="#559AC7" transform="translate(473,256)"/>
<path d="M0 0 C0.33 0.99 0.66 1.98 1 3 C-0.375 5 -0.375 5 -2 7 C-2.33 7.99 -2.66 8.98 -3 10 C-3.66 10 -4.32 10 -5 10 C-5.2475 10.825 -5.495 11.65 -5.75 12.5 C-6.95776678 15.88174698 -8.41552958 18.90918389 -10.09765625 22.0703125 C-11.01466752 24.03136691 -11.5448252 25.88836434 -12 28 C-12.66 28 -13.32 28 -14 28 C-14.103125 28.845625 -14.20625 29.69125 -14.3125 30.5625 C-15.0703052 34.351526 -16.4501664 37.4663794 -18 41 C-19.51240174 45.71513484 -20.51192197 50.44567557 -21.43359375 55.30078125 C-22.00735204 58.03503627 -22.74515952 60.68564372 -23.5 63.375 C-27.32453875 78.60807276 -27.40764276 94.7530808 -27.375 110.375 C-27.37518127 111.72765457 -27.37518127 111.72765457 -27.37536621 113.1076355 C-27.32596858 139.22203758 -23.92253517 164.58152776 -15.734375 189.4609375 C-15 192 -15 192 -15 195 C-14.34 195 -13.68 195 -13 195 C-12.15930585 196.60032137 -11.32768495 198.20541171 -10.5 199.8125 C-10.0359375 200.70582031 -9.571875 201.59914063 -9.09375 202.51953125 C-8 205 -8 205 -8 208 C-7.34 208 -6.68 208 -6 208 C-5.70867187 208.75023437 -5.41734375 209.50046875 -5.1171875 210.2734375 C-0.21540511 222.59114884 -0.21540511 222.59114884 7.875 232.9375 C8.57625 233.618125 9.2775 234.29875 10 235 C10 235.99 10 236.98 10 238 C4.64945927 233.0961649 0.67096341 227.91719515 -3.125 221.75 C-3.62386719 220.96753906 -4.12273437 220.18507813 -4.63671875 219.37890625 C-32.55227749 174.69943495 -36.76538993 109.63533125 -25.74609375 58.99609375 C-20.90548489 38.4336897 -13.12968916 16.82241423 0 0 Z " fill="#5599C5" transform="translate(194,240)"/>
<path d="M0 0 C2.88466172 2.88466172 2.25162989 4.92027689 2.25396729 8.96202087 C2.25864726 10.04937612 2.25864726 10.04937612 2.26342177 11.15869814 C2.27143231 13.60059049 2.26506611 16.04223643 2.25878906 18.48413086 C2.26149779 20.23010403 2.26505805 21.97607605 2.26940918 23.7220459 C2.27855564 28.47667495 2.27497807 33.23121755 2.26865101 37.98584819 C2.26359545 42.962863 2.2682819 47.93987028 2.27142334 52.91688538 C2.27506733 61.28583099 2.27025575 69.65474137 2.26074219 78.02368164 C2.24988877 87.6824385 2.25335876 97.34111072 2.264395 106.99986547 C2.27349381 115.29640707 2.27473953 123.59292328 2.26951766 131.88946825 C2.26640808 136.84233615 2.26596008 141.7951644 2.27259064 146.74802971 C2.27840005 151.41424096 2.2743018 156.08034421 2.26280212 160.74654388 C2.2601733 162.45284662 2.26088997 164.15915855 2.26532745 165.86545753 C2.32323582 190.41033588 2.32323582 190.41033588 -3.4375 197.125 C-4.33275391 198.21167969 -4.33275391 198.21167969 -5.24609375 199.3203125 C-7 201 -7 201 -10 202 C-10 200.68 -10 199.36 -10 198 C-9.01 198 -8.02 198 -7 198 C-6.34 196.35 -5.68 194.7 -5 193 C-4.01 193 -3.02 193 -2 193 C-2.00523682 192.3287207 -2.01047363 191.65744141 -2.01586914 190.96582031 C-2.03749994 187.72722436 -2.04991925 184.48864335 -2.0625 181.25 C-2.07087891 180.19683594 -2.07925781 179.14367187 -2.08789062 178.05859375 C-2.10801659 171.0145056 -1.93753669 163.99918469 -1.65183163 156.96165848 C-0.98773156 140.40680828 -0.79054745 123.86052221 -0.69667697 107.29475498 C-0.67429029 103.50188269 -0.64716802 99.70904377 -0.62062073 95.91619873 C-0.57138542 88.78437395 -0.52620046 81.65252995 -0.48259836 74.52066875 C-0.43262122 66.37988615 -0.37793431 58.2391371 -0.32291877 50.09838724 C-0.21016534 33.39895602 -0.10310876 16.69949362 0 0 Z " fill="#4E98C6" transform="translate(603,297)"/>
<path d="M0 0 C2.9719385 1.12451727 5.33440687 2.22293791 8 4 C8.226875 4.886875 8.45375 5.77375 8.6875 6.6875 C10.59510655 11.50193558 13.97613266 13.88004489 18 17 C18.6290625 17.48984375 19.258125 17.9796875 19.90625 18.484375 C23.11900179 20.87984782 26.19338304 22.73112768 30 24 C30 24.66 30 25.32 30 26 C31.36125 26.0928125 31.36125 26.0928125 32.75 26.1875 C37.50215341 26.84563937 41.67345966 28.8260302 46.03515625 30.74609375 C55.42757531 34.71838165 64.17458644 35.18150986 74.25 35.1875 C75.31863281 35.19974609 76.38726562 35.21199219 77.48828125 35.22460938 C85.10999184 35.23850071 92.47051765 34.60876816 99.81866455 32.47087097 C102.35152517 31.9241185 104.66111153 31.90343568 107.25 31.9375 C108.14203125 31.94652344 109.0340625 31.95554687 109.953125 31.96484375 C110.62859375 31.97644531 111.3040625 31.98804688 112 32 C112.05075968 39.72295318 112.08575878 47.44586324 112.10986328 55.16894531 C112.11991339 57.79558927 112.1335556 60.42222207 112.15087891 63.04882812 C112.17517028 66.82685098 112.18649319 70.60472573 112.1953125 74.3828125 C112.20563507 75.55490265 112.21595764 76.7269928 112.22659302 77.93460083 C112.22797609 88.0121089 112.22797609 88.0121089 110 93 C109.34 93 108.68 93 108 93 C108.24114784 91.93625908 108.24114784 91.93625908 108.48716736 90.85102844 C109.00461657 87.97433476 109.15832434 85.3041306 109.20532227 82.38354492 C109.22526749 81.28278122 109.24521271 80.18201752 109.26576233 79.04789734 C109.28247482 77.8706459 109.29918732 76.69339447 109.31640625 75.48046875 C109.3475779 73.65990715 109.3475779 73.65990715 109.37937927 71.80256653 C109.44468916 67.93093449 109.50367363 64.05923545 109.5625 60.1875 C109.60570285 57.56053998 109.64931771 54.93358671 109.69335938 52.30664062 C109.80035158 45.87116429 109.90215236 39.43562151 110 33 C109.25705688 33.20808792 108.51411377 33.41617584 107.74865723 33.63056946 C106.76747925 33.90241562 105.78630127 34.17426178 104.77539062 34.4543457 C103.80557251 34.72430862 102.83575439 34.99427155 101.83654785 35.27241516 C98.07610474 36.23698249 94.35584138 36.78868323 90.5 37.1875 C89.40075195 37.30593262 89.40075195 37.30593262 88.27929688 37.42675781 C62.00410924 40.10057647 36.58170527 34.0930609 15.3984375 17.97265625 C12.01315131 15.18834106 8.94028515 12.24747912 6 9 C5.12988281 8.04867187 5.12988281 8.04867187 4.2421875 7.078125 C0 2.30319767 0 2.30319767 0 0 Z " fill="#5899C5" transform="translate(201,601)"/>
<path d="M0 0 C11.59379866 14.34942617 13.55911014 39.21459539 12 57 C11.42761269 60.61408183 10.56202992 63.69360204 9 67 C8.67902344 67.680625 8.35804688 68.36125 8.02734375 69.0625 C3.41530495 76.65530986 -5.36238518 80.12455958 -13 84 C-13.67401855 84.35578125 -14.34803711 84.7115625 -15.04248047 85.078125 C-30.24445732 93.09609262 -30.24445732 93.09609262 -38 91 C-42.36560861 88.08959426 -43.3902357 85.27173416 -44.55810547 80.27832031 C-45.32261475 76.33666249 -45.69783497 72.37046033 -46.0625 68.375 C-46.55359637 63.21240016 -47.06627585 58.10656218 -48 53 C-47.34 53 -46.68 53 -46 53 C-43.82798914 64.30677995 -41.85439206 75.63691675 -40 87 C-32.59111068 87.63384034 -27.62587185 86.90990752 -21.19140625 83.09375 C-19 82 -19 82 -15 82 C-12.5159507 80.89847588 -10.14794991 79.76233542 -7.75 78.5 C-7.1003125 78.16613281 -6.450625 77.83226562 -5.78125 77.48828125 C-4.18377496 76.66605145 -2.59137178 75.83398093 -1 75 C-1 74.34 -1 73.68 -1 73 C-0.2575 72.62875 0.485 72.2575 1.25 71.875 C5.6930626 68.84563914 7.44839086 64.48949914 8.59375 59.3203125 C10.65784598 42.45029726 9.18966999 25.05202826 2.07421875 9.5390625 C0.70434065 6.30116881 0.23789397 3.4891116 0 0 Z " fill="#5596C1" transform="translate(323,190)"/>
<path d="M0 0 C0.83660156 -0.01417969 1.67320312 -0.02835938 2.53515625 -0.04296875 C5.23673421 0.21620702 6.64432628 0.74500178 8.9375 2.1875 C13.17406655 8.37691193 15.29347794 15.74205615 17.125 22.9375 C17.37910645 23.92613037 17.63321289 24.91476074 17.89501953 25.93334961 C20.41255184 36.27327304 21.42750212 46.5791025 21.9375 57.1875 C22.04384766 58.99154297 22.04384766 58.99154297 22.15234375 60.83203125 C22.44131752 70.39128362 20.97955471 79.80930229 19.69140625 89.2578125 C18.89358276 95.21902177 18.3825156 101.19073243 17.9375 107.1875 C16.9475 106.8575 15.9575 106.5275 14.9375 106.1875 C15.27784517 99.33365238 15.9688705 92.8200804 17.5 86.125 C20.07527036 74.23057483 19.73946476 61.28137154 18.9375 49.1875 C18.6075 48.8575 18.2775 48.5275 17.9375 48.1875 C17.73560541 46.82252912 17.59089684 45.44896458 17.47265625 44.07421875 C17.39466797 43.23826172 17.31667969 42.40230469 17.23632812 41.54101562 C17.079837 39.77564053 16.92615192 38.01001427 16.77539062 36.24414062 C16.65647461 34.9844043 16.65647461 34.9844043 16.53515625 33.69921875 C16.46820557 32.93053467 16.40125488 32.16185059 16.33227539 31.36987305 C15.90511306 29.00846053 15.02761929 27.31042161 13.9375 25.1875 C13.8125 22.4375 13.8125 22.4375 13.9375 20.1875 C13.2775 20.1875 12.6175 20.1875 11.9375 20.1875 C11.73253906 19.21167969 11.52757812 18.23585937 11.31640625 17.23046875 C11.04699219 15.95816406 10.77757812 14.68585938 10.5 13.375 C10.23316406 12.11042969 9.96632813 10.84585938 9.69140625 9.54296875 C9.00322114 6.21704587 9.00322114 6.21704587 7.9375 3.1875 C-4.21663561 2.19564696 -13.47942757 4.18145982 -24.796875 8.65625 C-28.01030786 9.90483449 -30.56718453 10.58534079 -34.0625 10.1875 C-31.37029682 8.39269788 -29.37581679 7.50056775 -26.3515625 6.49609375 C-25.43632813 6.19123047 -24.52109375 5.88636719 -23.578125 5.57226562 C-22.62421875 5.25966797 -21.6703125 4.94707031 -20.6875 4.625 C-19.74132812 4.30853516 -18.79515625 3.99207031 -17.8203125 3.66601562 C-11.85251228 1.69211541 -6.33174662 0.04893158 0 0 Z " fill="#599AC4" transform="translate(605.0625,130.8125)"/>
<path d="M0 0 C1.03125 0.39960938 2.0625 0.79921875 3.125 1.2109375 C11.3920815 4.49186802 11.3920815 4.49186802 14.125 7.625 C10.39012223 7.1270163 8.31262365 6.75008244 5.125 4.625 C3.78516286 4.12632851 2.42858659 3.67147862 1.0625 3.25 C-2.38992859 2.15532752 -5.67585704 0.87373276 -9 -0.5625 C-13.15940791 -2.22368768 -16.35421328 -3.15744386 -20.875 -2.375 C-24.97512744 0.10054864 -26.44474571 1.35552179 -27.98046875 5.88671875 C-29.56922579 12.93335195 -29.60586039 20.25907782 -29.97949219 27.44799805 C-30.08303344 29.38892154 -30.19760821 31.32924657 -30.3125 33.26953125 C-30.37308594 34.41784424 -30.43367188 35.56615723 -30.49609375 36.74926758 C-30.875 39.625 -30.875 39.625 -32.875 42.625 C-33.17239996 44.20011832 -33.41767593 45.78551544 -33.625 47.375 C-34.61182165 52.77488805 -36.82180422 55.99465671 -40.875 59.625 C-44.58887818 62.10091878 -47.57082561 62.16407468 -51.875 61.625 C-56.05496618 59.86012539 -57.93765746 57.70361587 -59.875 53.625 C-59.875 52.635 -59.875 51.645 -59.875 50.625 C-60.535 50.625 -61.195 50.625 -61.875 50.625 C-62.40894179 49.2132217 -62.92665104 47.79529756 -63.4375 46.375 C-63.72753906 45.58609375 -64.01757812 44.7971875 -64.31640625 43.984375 C-64.92022837 41.43396548 -64.7223932 40.07177771 -63.875 37.625 C-63.42060547 38.676875 -63.42060547 38.676875 -62.95703125 39.75 C-58.60170259 50.47044111 -58.60170259 50.47044111 -50.875 58.625 C-47.52591575 59.19371242 -45.11868674 59.48850762 -42.2265625 57.48046875 C-32.93274812 47.78565222 -33.01660533 33.26716655 -32.23876953 20.66845703 C-31.13220084 3.4496356 -31.13220084 3.4496356 -25.43164062 -3.01074219 C-18.68483113 -8.92372391 -6.9874396 -2.82356894 0 0 Z " fill="#5598C4" transform="translate(302.875,385.375)"/>
<path d="M0 0 C15.34243725 5.39360727 25.68978576 19.85596785 34.6328125 32.64453125 C37.87947725 37.27645707 41.31181648 41.71009748 45 46 C45.72316406 46.84304688 46.44632813 47.68609375 47.19140625 48.5546875 C57.18183945 59.3845146 72.2567764 67.4511266 87.19360352 68.09448242 C89.71327882 68.1344611 92.23004696 68.13816885 94.75 68.125 C95.63655273 68.12306641 96.52310547 68.12113281 97.43652344 68.11914062 C103.35025159 68.08002004 109.13236936 67.78235075 115 67 C114 69 114 69 112.28515625 69.6328125 C96.15518652 73.20465114 77.88763599 71.00280185 63 64 C63 63.34 63 62.68 63 62 C62.29875 61.9175 61.5975 61.835 60.875 61.75 C55.62672678 60.38088525 51.51952886 57.06099484 48 53 C48 52.34 48 51.68 48 51 C47.34 51 46.68 51 46 51 C44.4921875 49.5390625 44.4921875 49.5390625 42.875 47.625 C42.33617187 46.99851562 41.79734375 46.37203125 41.2421875 45.7265625 C40 44 40 44 40 42 C39.34 42 38.68 42 38 42 C37.8453125 41.0409375 37.8453125 41.0409375 37.6875 40.0625 C37.460625 39.381875 37.23375 38.70125 37 38 C36.01 37.67 35.02 37.34 34 37 C31 32.66666667 31 32.66666667 31 30 C30.1028125 29.690625 30.1028125 29.690625 29.1875 29.375 C26.18763941 27.48937334 25.54702895 25.15593905 24 22 C22.35305515 20.31384218 20.68873879 18.64429829 19 17 C18.67 16.01 18.34 15.02 18 14 C16.6846659 13.29848848 15.34882408 12.63474075 14 12 C13 11 12 10 11 9 C10.01 8.67 9.02 8.34 8 8 C8 7.34 8 6.68 8 6 C6.68 5.67 5.36 5.34 4 5 C4 4.34 4 3.68 4 3 C2.68 3 1.36 3 0 3 C0 2.01 0 1.02 0 0 Z " fill="#5698C2" transform="translate(180,525)"/>
<path d="M0 0 C11.51761801 5.77084932 22.84447467 11.86143707 33.828125 18.6015625 C35.06163696 19.35602661 35.06163696 19.35602661 36.32006836 20.12573242 C41.66517158 23.49674431 46.37935194 27.31191926 51.015625 31.6015625 C50.025625 32.0965625 50.025625 32.0965625 49.015625 32.6015625 C48.355625 32.2715625 47.695625 31.9415625 47.015625 31.6015625 C47.015625 30.9415625 47.015625 30.2815625 47.015625 29.6015625 C44.68348352 28.39528242 42.51920361 27.4360887 40.015625 26.6015625 C40.015625 25.9415625 40.015625 25.2815625 40.015625 24.6015625 C39.31050781 24.33601563 38.60539062 24.07046875 37.87890625 23.796875 C34.85994714 22.53657283 32.06377424 21.06198256 29.203125 19.4765625 C28.22730469 18.93773437 27.25148438 18.39890625 26.24609375 17.84375 C25.51003906 17.43382812 24.77398437 17.02390625 24.015625 16.6015625 C24.015625 15.9415625 24.015625 15.2815625 24.015625 14.6015625 C21.705625 13.9415625 19.395625 13.2815625 17.015625 12.6015625 C17.015625 11.9415625 17.015625 11.2815625 17.015625 10.6015625 C16.45875 10.4778125 15.901875 10.3540625 15.328125 10.2265625 C12.79448136 9.54179395 10.43641468 8.61022487 8.015625 7.6015625 C8.015625 6.9415625 8.015625 6.2815625 8.015625 5.6015625 C7.36335938 5.43140625 6.71109375 5.26125 6.0390625 5.0859375 C5.16507812 4.84359375 4.29109375 4.60125 3.390625 4.3515625 C2.53210938 4.11953125 1.67359375 3.8875 0.7890625 3.6484375 C-1.984375 2.6015625 -1.984375 2.6015625 -4.8203125 0.6875 C-8.42248544 -1.68726586 -11.94187933 -3.08728772 -15.984375 -4.5234375 C-16.67015625 -4.77480469 -17.3559375 -5.02617187 -18.0625 -5.28515625 C-20.03194643 -6.00302699 -22.00711276 -6.70243914 -23.984375 -7.3984375 C-25.03625 -7.77871094 -26.088125 -8.15898437 -27.171875 -8.55078125 C-29.86996769 -9.36395641 -32.18133415 -9.68769976 -34.984375 -9.8359375 C-39.31379399 -10.18487575 -42.09592115 -11.45421058 -45.984375 -13.3984375 C-50.38834712 -13.91500679 -54.69031497 -13.47195251 -58.984375 -12.3984375 C-50.01071731 -25.85892403 -10.88859113 -5.39881761 0 0 Z " fill="#579AC3" transform="translate(263.984375,147.3984375)"/>
<path d="M0 0 C0.66 0 1.32 0 2 0 C-2.46420257 11.89063301 -10.31700466 19.54723006 -21.60546875 25.0546875 C-31.28529916 28.87608874 -41.44477665 27.22649576 -50.79394531 23.23388672 C-58.79543243 19.60301159 -66.40263546 15.29926378 -73.875 10.6875 C-74.55908936 10.26718506 -75.24317871 9.84687012 -75.94799805 9.41381836 C-79.01878291 7.47040725 -80.95823048 6.06265428 -83 3 C-79.625 3.75 -79.625 3.75 -76 5 C-75.33333333 6.33333333 -74.66666667 7.66666667 -74 9 C-71.68925595 9.74118205 -69.35188447 10.40206327 -67 11 C-65.30676325 11.95432023 -63.64131973 12.95892011 -62 14 C-56.42964338 17.51953401 -51.48412104 20.59040847 -45 22 C-45 22.66 -45 23.32 -45 24 C-42.10410348 24.02706445 -39.20846205 24.04687029 -36.3125 24.0625 C-35.49587891 24.07087891 -34.67925781 24.07925781 -33.83789062 24.08789062 C-29.75500916 24.10442051 -25.98348293 24.03035098 -22 23 C-22 22.34 -22 21.68 -22 21 C-15.5 17 -15.5 17 -11 17 C-11 15.68 -11 14.36 -11 13 C-10.38125 12.938125 -9.7625 12.87625 -9.125 12.8125 C-6.7498001 12.19124685 -6.7498001 12.19124685 -5.9375 9.625 C-5.4734375 8.325625 -5.4734375 8.325625 -5 7 C-4.0206121 5.97980427 -3.02104551 4.97850195 -2 4 C-0.82425289 1.90010348 -0.82425289 1.90010348 0 0 Z " fill="#5698C4" transform="translate(309,495)"/>
<path d="M0 0 C0.33 0 0.66 0 1 0 C2.88269461 11.52941348 3.32231003 22.78234787 3.37890625 34.4453125 C3.39512686 36.27278492 3.41231141 38.10024902 3.43040466 39.92770386 C3.47563228 44.68982079 3.51068375 49.45194963 3.54260254 54.21417236 C3.59492889 61.86906815 3.65978604 69.52384226 3.73081779 77.17858505 C3.75354283 79.8402469 3.76987096 82.50189322 3.78553772 85.16360474 C3.79894366 86.79282816 3.8125584 88.42204989 3.82641602 90.05126953 C3.82902939 90.78583878 3.83164276 91.52040802 3.83433533 92.27723694 C3.87162346 95.97211012 4.12238775 99.40594282 5 103 C4.34 103 3.68 103 3 103 C0.84072998 97.71037677 0.69485385 93.03073132 0.68115234 87.41455078 C0.67110672 86.46757828 0.6610611 85.52060577 0.65071106 84.54493713 C0.61992738 81.42840151 0.6028572 78.31195162 0.5859375 75.1953125 C0.567222 73.02911647 0.5476483 70.86292769 0.5272522 68.69674683 C0.47596552 63.00537398 0.43632114 57.31397751 0.39910889 51.62249756 C0.35904761 45.81077242 0.30796493 39.99914527 0.2578125 34.1875 C0.16109417 22.79173554 0.07667619 11.3959157 0 0 Z " fill="#589AC6" transform="translate(505,591)"/>
<path d="M0 0 C0.66 0.33 1.32 0.66 2 1 C0.9194881 3.71147327 -0.17324871 6.41537945 -1.296875 9.109375 C-9.10086268 28.66130113 -12.80749799 49.13558045 -15 70 C-17 68 -17 68 -17.2097168 64.4284668 C-17.09232185 59.92393459 -16.43411551 55.57419353 -15.64453125 51.14453125 C-15.42926033 49.90928963 -15.42926033 49.90928963 -15.2096405 48.64909363 C-14.90468478 46.914756 -14.5960579 45.18106026 -14.28393555 43.44799805 C-13.81731 40.83938965 -13.37198009 38.22773426 -12.92773438 35.61523438 C-10.65442154 22.64187154 -7.55963972 11.01547503 0 0 Z " fill="#569BCA" transform="translate(249,244)"/>
<path d="M0 0 C-1.33078287 2.66156575 -2.41717824 2.68873799 -5.1875 3.6875 C-9.72540195 5.43183803 -14.08425168 7.40769024 -18.4375 9.5625 C-19.61183594 10.14128906 -20.78617188 10.72007812 -21.99609375 11.31640625 C-24.92506145 12.75554213 -24.92506145 12.75554213 -26.47265625 14.58984375 C-28 16 -28 16 -31.265625 16.921875 C-35.30035426 18.08671315 -38.33339798 19.90582599 -41.75 22.25 C-42.97775558 23.05683884 -44.20693912 23.86150871 -45.4375 24.6640625 C-46.03949219 25.05883789 -46.64148438 25.45361328 -47.26171875 25.86035156 C-59.68107378 34.00270399 -59.68107378 34.00270399 -67.859375 32.5625 C-70.34204494 31.91011958 -72.63569909 30.99549512 -75 30 C-77.66389324 29.54849267 -80.30927129 29.27363343 -83 29 C-80.27093913 27.112739 -79.10839095 26.9845902 -75.7578125 27.4609375 C-74.55898438 27.76257813 -73.36015625 28.06421875 -72.125 28.375 C-63.09108854 30.6553773 -63.09108854 30.6553773 -54.6015625 27.69140625 C-52.93508076 26.66066885 -51.27657734 25.61695401 -49.625 24.5625 C-47.83175394 23.45276941 -46.03747018 22.34471403 -44.2421875 21.23828125 C-42.9113916 20.41191162 -42.9113916 20.41191162 -41.55371094 19.56884766 C-5.34780371 -2.67390185 -5.34780371 -2.67390185 0 0 Z " fill="#5599C5" transform="translate(571,142)"/>
<path d="M0 0 C2.77467796 2.77467796 3.38813026 6.00684469 4.4375 9.6875 C4.65559326 10.44627441 4.87368652 11.20504883 5.09838867 11.98681641 C12.82019932 39.4491315 12.82019932 39.4491315 9.015625 46.9375 C6.84325694 49.72671331 4.43603723 52.11644757 1 53 C-3.29204108 53.06220349 -6.13706469 52.71192163 -9.5 49.9375 C-10.2425 48.9784375 -10.2425 48.9784375 -11 48 C-10.01 47.505 -10.01 47.505 -9 47 C-8.34 47.33 -7.68 47.66 -7 48 C-7 48.66 -7 49.32 -7 50 C-3.96695801 50.22890883 -1.02495639 50.36600896 2 50 C3.98239527 48.13875077 3.98239527 48.13875077 5 46 C5.66 46 6.32 46 7 46 C7 42.04 7 38.08 7 34 C6.34 33.67 5.68 33.34 5 33 C4.65625 30.1640625 4.65625 30.1640625 4.5 26.625 C4.33542866 21.48334655 4.33542866 21.48334655 2 17 C1.58935547 15.09887695 1.58935547 15.09887695 1.3671875 12.98828125 C1.28339844 12.23095703 1.19960938 11.47363281 1.11328125 10.69335938 C0.99533203 9.51483398 0.99533203 9.51483398 0.875 8.3125 C0.78863281 7.51521484 0.70226562 6.71792969 0.61328125 5.89648438 C0.40151528 3.93176674 0.19978527 1.96597204 0 0 Z " fill="#5499C7" transform="translate(644,278)"/>
<path d="M0 0 C0.33 0 0.66 0 1 0 C0.99111755 0.75436844 0.98223511 1.50873688 0.9730835 2.28596497 C0.89162383 9.53257776 0.83138847 16.7789568 0.79275131 24.02591419 C0.77221744 27.74819383 0.74456184 31.47008351 0.69824219 35.19213867 C0.47499127 53.62115156 1.29761975 71.06984179 4.54650879 89.27694702 C5.19529444 93.17267345 5.61060416 97.07052581 6 101 C5.01 100.67 4.02 100.34 3 100 C-1.26784511 79.94891253 -1.53170926 60.46899256 -1.33294678 40.08178711 C-1.30529431 36.75919873 -1.2970677 33.43667846 -1.28938007 30.11399269 C-1.27944781 26.13064344 -1.25963091 22.14736459 -1.23828125 18.1640625 C-1.2348855 17.41268635 -1.23148975 16.6613102 -1.2279911 15.88716507 C-1.21644136 13.77576393 -1.19794256 11.66454902 -1.17700195 9.55322266 C-1.16715775 8.35621735 -1.15731354 7.15921204 -1.14717102 5.92593384 C-1 3 -1 3 0 0 Z " fill="#599BC6" transform="translate(232,322)"/>
<path d="M0 0 C0.33 0 0.66 0 1 0 C1.5816722 3.89031956 2.15063364 7.7822887 2.70898438 11.67602539 C2.99234028 13.63455665 3.2851032 15.59171967 3.578125 17.54882812 C6.92284509 41.02159589 6.92284509 41.02159589 2 49 C-2.32440291 54.16138412 -8.65390537 54.38813921 -15 55 C-18.34289703 55.13041211 -21.65756957 55.13310564 -25 55 C-21.32699204 52.55132803 -17.82757573 52.07689324 -13.5625 51.375 C-12.4168457 51.17390625 -12.4168457 51.17390625 -11.24804688 50.96875 C-7.72681579 50.36808743 -4.59981922 50 -1 50 C-1 49.01 -1 48.02 -1 47 C-0.51273437 46.57203125 -0.02546875 46.1440625 0.4765625 45.703125 C3.67204397 42.13074059 2.42648828 36.07137857 2.19482422 31.48681641 C1.73451209 25.61120322 0.87077612 19.77021028 -0.02001953 13.94628906 C-0.74489497 9.03259116 -1.24777495 4.90020229 0 0 Z " fill="#5D9BC4" transform="translate(504,483)"/>
<path d="M0 0 C5.46717451 2.80746799 7.20792874 5.70716213 9.1875 11.4375 C11.55383904 21.93499578 9.88925876 33.48778636 8.75 44.0625 C8.55410278 45.92974731 8.55410278 45.92974731 8.35424805 47.8347168 C7.15502807 58.68476914 5.29657382 69.33317235 3 80 C2.67 80 2.34 80 2 80 C1.81352839 74.87203063 2.23144908 70.55418007 3.42578125 65.58203125 C5.95514351 54.20850437 6.60344597 42.60777294 7 31 C7.02868164 30.2255957 7.05736328 29.45119141 7.08691406 28.65332031 C7.16232099 26.3729767 7.21126251 24.09373578 7.25 21.8125 C7.27143066 21.13018311 7.29286133 20.44786621 7.31494141 19.74487305 C7.3486545 14.69352758 6.1695436 11.44783624 4 7 C3.32723284 5.3357865 2.65793165 3.67013418 2 2 C1.34 2 0.68 2 0 2 C0 1.34 0 0.68 0 0 Z " fill="#5C9DC5" transform="translate(317,393)"/>
<path d="M0 0 C3.83990988 1.38375131 6.97052564 3.16309349 10.3125 5.5 C11.19550781 6.1084375 12.07851562 6.716875 12.98828125 7.34375 C13.65214844 7.8903125 14.31601563 8.436875 15 9 C15 9.66 15 10.32 15 11 C15.59997803 11.25668457 16.19995605 11.51336914 16.81811523 11.77783203 C19.22075087 13.12365211 20.29737154 14.34346221 21.91015625 16.5546875 C22.42513672 17.25207031 22.94011719 17.94945312 23.47070312 18.66796875 C23.99599609 19.39628906 24.52128906 20.12460937 25.0625 20.875 C25.85624023 21.95587891 25.85624023 21.95587891 26.66601562 23.05859375 C27.65483806 24.40597288 28.64034099 25.75579936 29.62133789 27.10888672 C30.59639902 28.44637982 31.58711099 29.77252871 32.58862305 31.09033203 C34.21879988 33.29604785 35.46615573 35.57656363 36.75 38 C39.5827685 43.30162971 42.63814933 48.44105485 45.77734375 53.56640625 C46.18082031 54.36949219 46.58429688 55.17257812 47 56 C46.505 56.99 46.505 56.99 46 58 C42.45183809 52.91967727 39.25626655 47.7323342 36.25 42.3125 C27.5232199 26.76112001 16.95779382 13.51061665 2.52734375 2.93359375 C1.69332031 2.29550781 0.85929688 1.65742187 0 1 C0 0.67 0 0.34 0 0 Z " fill="#5798C3" transform="translate(154,543)"/>
<path d="M0 0 C0.33 0 0.66 0 1 0 C1.20212167 11.80701538 1.23276933 23.49519438 0 35.25 C-0.75769721 42.55457132 -1.21779196 49.77888244 -1.25 57.125 C-1.25902344 57.96063477 -1.26804687 58.79626953 -1.27734375 59.65722656 C-1.33120834 65.15080394 -1.33120834 65.15080394 1 70 C3.53770003 71.28254644 3.53770003 71.28254644 6 72 C6 72.66 6 73.32 6 74 C1.00554129 72.75138532 -1.21825094 71.34238771 -4 67 C-4.49609375 63.8828125 -4.49609375 63.8828125 -4.4375 60.125 C-4.4264624 59.41520996 -4.4154248 58.70541992 -4.40405273 57.97412109 C-4.14179461 48.80918668 -3.08580926 39.68187281 -2.14501953 30.56665039 C-1.09704484 20.38395076 -0.37786547 10.22842742 0 0 Z " fill="#569BC6" transform="translate(336,462)"/>
<path d="M0 0 C0.33 0 0.66 0 1 0 C1 5.28 1 10.56 1 16 C17.25788488 17.59645606 17.25788488 17.59645606 33 14 C33.33 11.36 33.66 8.72 34 6 C34.33 6 34.66 6 35 6 C35.13595863 7.41396973 35.23243845 8.83176684 35.3125 10.25 C35.37050781 11.03890625 35.42851562 11.8278125 35.48828125 12.640625 C35 15 35 15 32.8984375 17.25390625 C29.48831186 19.30825418 27.26704187 19.55673408 23.3125 19.6875 C18.99685888 19.7124868 18.99685888 19.7124868 15 21 C13.20568976 20.96297455 11.41249749 20.84803932 9.625 20.6875 C8.66851562 20.60886719 7.71203125 20.53023438 6.7265625 20.44921875 C4 20 4 20 0 18 C0 12.06 0 6.12 0 0 Z " fill="#59A0CE" transform="translate(399,322)"/>
<path d="M0 0 C2.34765625 1.63671875 2.34765625 1.63671875 4 3 C-0.01427523 2.38835747 -3.84183728 1.5307293 -7.75 0.4375 C-14.75118663 -1.31713983 -20.77871122 -2.35633212 -27.5625 0.5 C-30.38088655 3.39065287 -31.0843682 5.08112764 -31.3046875 9.046875 C-30.7761595 12.43487502 -28.55546507 13.89883983 -26 16 C-24.64444707 17.64864545 -23.30368347 19.31003995 -22 21 C-26.24639375 19.2034488 -30.90811592 16.18376817 -33 12 C-33.46145874 7.38541256 -33.74619403 4.3587924 -30.8125 0.625 C-22.1111918 -7.49622099 -9.91432822 -4.40473126 0 0 Z " fill="#5698C2" transform="translate(176,522)"/>
<path d="M0 0 C0.33 0 0.66 0 1 0 C1.01458252 0.73114014 1.02916504 1.46228027 1.04418945 2.21557617 C1.1188291 5.54007371 1.21543801 8.86358467 1.3125 12.1875 C1.33505859 13.33798828 1.35761719 14.48847656 1.38085938 15.67382812 C1.41630859 16.78564453 1.45175781 17.89746094 1.48828125 19.04296875 C1.51446533 20.06414795 1.54064941 21.08532715 1.56762695 22.13745117 C2.06162705 25.40800518 3.06411054 27.3384116 5 30 C8.5209856 31.7604928 12.19581629 31.53224956 16 31 C18.9833077 29.82812813 21.78087039 28.48697838 24.6171875 26.99609375 C27 26 27 26 30 27 C27.7965194 28.1560727 25.58796844 29.29984721 23.375 30.4375 C22.44880859 30.92573242 22.44880859 30.92573242 21.50390625 31.42382812 C16.19018855 34.13662085 12.22282722 35.57486911 6.375 34.0625 C3.01512824 32.00924504 1.23052844 30.40803962 -0.3515625 26.77734375 C-2.36300735 18.16205886 -1.39865318 8.65345586 0 0 Z " fill="#5595C0" transform="translate(539,487)"/>
<path d="M0 0 C0.66 0 1.32 0 2 0 C4.17201086 11.30677995 6.14560794 22.63691675 8 34 C15.39426196 34.63258895 20.42670754 33.88348321 26.90625 30.19140625 C29 29 29 29 32 28 C31.02215769 30.48905315 30.33638015 31.77893069 28.07421875 33.265625 C20.96221308 36.19889084 14.63376402 36.4307453 7 36 C3.47917519 30.33520924 3.07011871 24.54043513 2.375 18 C2.13374401 15.87489404 1.89158417 13.74989046 1.6484375 11.625 C1.53854492 10.64273438 1.42865234 9.66046875 1.31542969 8.6484375 C0.96989071 5.74719379 0.52880948 2.87353077 0 0 Z " fill="#4F9ACB" transform="translate(275,243)"/>
<path d="M0 0 C11.21946079 5.19689309 18.65382225 18.62370281 22.9375 29.76171875 C25.41045137 36.75167147 27.53924638 43.56327484 28 51 C27.34 51.66 26.68 52.32 26 53 C25.90203125 52.27296875 25.8040625 51.5459375 25.703125 50.796875 C24.28066034 41.23202646 22.13146557 32.27482406 17 24 C16.34011286 22.65262588 15.6930958 21.29882913 15.0625 19.9375 C13.45447836 16.66008185 11.67946278 14.50659421 9 12 C8.54625 11.195625 8.0925 10.39125 7.625 9.5625 C6.11694455 7.18441256 4.96807885 6.02888597 2.8125 4.3125 C1.884375 3.549375 0.95625 2.78625 0 2 C0 1.34 0 0.68 0 0 Z " fill="#5899C4" transform="translate(477,539)"/>
<path d="M0 0 C11.9075902 14.73780004 12.87604762 38.87068125 12 57 C11.67 57 11.34 57 11 57 C10.92483154 56.17910889 10.84966309 55.35821777 10.7722168 54.51245117 C10.48359404 51.41221077 10.18614447 48.31296847 9.88305664 45.21411133 C9.69209954 43.2351664 9.51096679 41.25528126 9.33007812 39.27539062 C8.18155326 27.64289518 5.41612938 17.59726986 0.98828125 6.84765625 C0 4 0 4 0 0 Z " fill="#5D9CC5" transform="translate(323,190)"/>
<path d="M0 0 C0.33 0 0.66 0 1 0 C1.0501123 1.1552417 1.10022461 2.3104834 1.15185547 3.50073242 C1.34055313 7.79690016 1.54085793 12.09246244 1.74462891 16.38793945 C1.83111938 18.24521699 1.91448402 20.1026429 1.99462891 21.96020508 C2.11054216 24.63408058 2.23777918 27.30721652 2.3671875 29.98046875 C2.40061249 30.80773972 2.43403748 31.63501068 2.46847534 32.48735046 C2.68690801 36.76084959 3.17686247 40.0657429 5 44 C5.32993786 46.19781189 5.57682029 48.40931841 5.75 50.625 C5.84796875 51.75164062 5.9459375 52.87828125 6.046875 54.0390625 C6 57 6 57 4 60 C3.34 60 2.68 60 2 60 C2.33 59.01 2.66 58.02 3 57 C3.24586727 52.98416789 2.93471123 49.41616665 2.0625 45.515625 C0.85623093 39.64332446 0.28140584 33.7839379 -0.1875 27.8125 C-0.27499512 26.72203369 -0.36249023 25.63156738 -0.45263672 24.50805664 C-1.05305885 16.21695138 -0.9932536 8.25474278 0 0 Z " fill="#589AC4" transform="translate(193,180)"/>
<path d="M0 0 C4.75137563 4.2004915 7.51341802 8.94509277 10.5 14.5 C10.98122314 15.38478027 11.46244629 16.26956055 11.95825195 17.18115234 C21 34.09043536 21 34.09043536 21 40 C20.34 40 19.68 40 19 40 C16.31034483 33.8137931 16.31034483 33.8137931 15.12109375 30.6953125 C12.19730857 23.03719735 8.55104809 15.82657214 4 9 C4 8.01 4 7.02 4 6 C3.01 5.67 2.02 5.34 1 5 C0.67 3.35 0.34 1.7 0 0 Z " fill="#549AC4" transform="translate(623,238)"/>
<path d="M0 0 C5.76702576 0.38446838 10.22531325 2.23530042 15.40625 4.76171875 C18.11035654 6.11816031 18.11035654 6.11816031 21.5625 7.1875 C24.89461153 9.66522396 25.16617274 11.66126906 25.765625 15.68359375 C26.26728162 22.78203493 26.1394188 29.88964115 26 37 C25.67 37 25.34 37 25 37 C24.9498877 36.39003174 24.89977539 35.78006348 24.84814453 35.15161133 C24.61514187 32.37116574 24.37018705 29.59189654 24.125 26.8125 C24.04636719 25.85279297 23.96773437 24.89308594 23.88671875 23.90429688 C23.76103516 22.50727539 23.76103516 22.50727539 23.6328125 21.08203125 C23.55949707 20.22843018 23.48618164 19.3748291 23.41064453 18.49536133 C22.70136194 14.18526775 21.8119677 11.65053792 18.3671875 8.890625 C14.70236906 6.83288472 11.04608641 5.23940492 7.125 3.75 C6.43664062 3.481875 5.74828125 3.21375 5.0390625 2.9375 C3.36185521 2.28525272 1.68126877 1.64170564 0 1 C0 0.67 0 0.34 0 0 Z " fill="#4992C3" transform="translate(517,238)"/>
<path d="M0 0 C1.42025611 4.15997595 0.02704177 6.12421504 -1.81640625 9.99609375 C-6.13104427 20.94644568 -7.58130955 33.38913866 -9 45 C-9.33 45 -9.66 45 -10 45 C-10.88458988 29.53605839 -6.69209075 15.19614249 -1 1 C-0.67 0.67 -0.34 0.34 0 0 Z " fill="#5396C2" transform="translate(204,135)"/>
<path d="M0 0 C0.33 0 0.66 0 1 0 C1.54071927 29.86850058 1.54071927 29.86850058 -6.24609375 39.3203125 C-8 41 -8 41 -11 42 C-11 40.68 -11 39.36 -11 38 C-10.01 38 -9.02 38 -8 38 C-7.34 36.35 -6.68 34.7 -6 33 C-5.01 33 -4.02 33 -3 33 C-2.25077302 28.83396867 -1.76636652 24.72913131 -1.46484375 20.5078125 C-1.37783203 19.30898438 -1.29082031 18.11015625 -1.20117188 16.875 C-1.0706543 15.01875 -1.0706543 15.01875 -0.9375 13.125 C-0.84662109 11.86429687 -0.75574219 10.60359375 -0.66210938 9.3046875 C-0.43890313 6.20329541 -0.21828483 3.10174171 0 0 Z " fill="#5C9EC6" transform="translate(604,457)"/>
<path d="M0 0 C1.32 0 2.64 0 4 0 C4.33 1.65 4.66 3.3 5 5 C5.99 5.33 6.98 5.66 8 6 C9.69088222 7.97956942 11.35830472 9.97945196 13 12 C13.66 12.33 14.32 12.66 15 13 C15 13.99 15 14.98 15 16 C15.99 16.33 16.98 16.66 18 17 C19.1875 19.5625 19.1875 19.5625 20 22 C14.75412668 17.71765444 10.35641802 13.17200313 6 8 C5.41476562 7.3296875 4.82953125 6.659375 4.2265625 5.96875 C0 1.12705399 0 1.12705399 0 0 Z " fill="#5398C2" transform="translate(613,303)"/>
<path d="M0 0 C2 2 2 2 2 5.25 C1.03434708 11.85066552 -2.23672943 17.98333747 -5 24 C-6.43808641 19.68574078 -5.31166844 16.27619075 -4 12 C-3.00585407 10.32983484 -2.0064275 8.66279327 -1 7 C-0.28076792 3.30476048 -0.28076792 3.30476048 0 0 Z " fill="#5599C5" transform="translate(317,471)"/>
<path d="M0 0 C1.9375 1.375 1.9375 1.375 2.75 4.5 C2.811875 5.44875 2.87375 6.3975 2.9375 7.375 C2.51339844 6.941875 2.08929688 6.50875 1.65234375 6.0625 C-1.37803069 3.18530932 -3.34909203 1.53065265 -7.5 0.625 C-13.19656394 1.82427662 -17.01542929 5.32792929 -21.0625 9.375 C-20.58403935 5.06885411 -19.40323619 3.12619451 -16.0625 0.375 C-10.85266357 -1.36161214 -5.34945838 -1.0917262 0 0 Z " fill="#5395BD" transform="translate(272.0625,235.625)"/>
<path d="M0 0 C0.99 0.33 1.98 0.66 3 1 C0.13126298 2.80184391 -2.74601558 4.58958331 -5.625 6.375 C-6.43324219 6.88289063 -7.24148438 7.39078125 -8.07421875 7.9140625 C-12.2925428 10.52050663 -16.16410848 12.70103885 -21 14 C-21 13.34 -21 12.68 -21 12 C-19.948125 11.505 -18.89625 11.01 -17.8125 10.5 C-12.57205147 7.91734167 -7.73964198 4.70103233 -2.85546875 1.51171875 C-1.91316406 1.01285156 -0.97085938 0.51398438 0 0 Z " fill="#5595C2" transform="translate(590,499)"/>
<path d="M0 0 C4.0533866 4.0533866 3.05380853 11.64068176 3.0625 17.125 C3.041875 18.40375 3.02125 19.6825 3 21 C2.34 20.67 1.68 20.34 1 20 C-0.25857557 15.79683254 -0.11656948 11.53385395 -0.0625 7.1875 C-0.05798828 6.49462891 -0.05347656 5.80175781 -0.04882812 5.08789062 C-0.03713156 3.39188932 -0.01919924 1.69593297 0 0 Z " fill="#4C97C8" transform="translate(470,235)"/>
<path d="M0 0 C3.44025166 0.07519676 6.07651279 0.69450639 9.1875 2.25 C6.41414918 3.21000605 5.16563561 3.2444176 2.25 2.5 C-0.99543083 1.88354667 -0.99543083 1.88354667 -3.5625 4.4375 C-5.37563463 6.70391829 -6.72616284 8.58353607 -7.8125 11.25 C-8.5 9.5625 -8.5 9.5625 -8.8125 7.25 C-6.53068554 2.68637109 -5.28776653 0.34673879 0 0 Z " fill="#4398D1" transform="translate(491.8125,170.75)"/>
<path d="M0 0 C-0.99 0.495 -0.99 0.495 -2 1 C-2 1.66 -2 2.32 -2 3 C-8.04829486 3.89604368 -13.8894576 4.11269443 -20 4 C-16.79252626 1.86168417 -14.88370763 1.46552015 -11.125 0.875 C-10.09632813 0.70742188 -9.06765625 0.53984375 -8.0078125 0.3671875 C-5.29732111 0.03629634 -2.72605266 -0.07041464 0 0 Z " fill="#4A94C5" transform="translate(499,534)"/>
<path d="M0 0 C0.33 0 0.66 0 1 0 C1.66 6.6 2.32 13.2 3 20 C2.34 20 1.68 20 1 20 C-1.26613747 13.06828537 -0.88701576 7.19201969 0 0 Z " fill="#5E9FCB" transform="translate(501,460)"/>
<path d="M0 0 C4.04713445 2.07825823 6.14038454 3.81586521 8 8 C8.51293271 10.67920194 8.76896898 13.27383398 9 16 C5.29048547 12.29048547 3.90308273 6.83090231 2 2 C1.34 2 0.68 2 0 2 C0 1.34 0 0.68 0 0 Z " fill="#5396C0" transform="translate(317,393)"/>
<path d="M0 0 C3.34998521 1.11666174 3.79340222 1.74694925 5.6875 4.5625 C6.12449219 5.20316406 6.56148438 5.84382812 7.01171875 6.50390625 C7.33785156 6.99761719 7.66398437 7.49132812 8 8 C7.67 8.66 7.34 9.32 7 10 C6.21625 9.360625 5.4325 8.72125 4.625 8.0625 C2.20460719 6.01857687 2.20460719 6.01857687 0 5 C0 3.35 0 1.7 0 0 Z " fill="#539CC7" transform="translate(315,180)"/>
<path d="M0 0 C2.00993705 3.01490557 2.72623341 5.2149927 3.625 8.6875 C3.88539063 9.68136719 4.14578125 10.67523438 4.4140625 11.69921875 C4.60742188 12.45847656 4.80078125 13.21773438 5 14 C4.01 14.495 4.01 14.495 3 15 C-0.16727335 9.8531808 -0.35050464 5.841744 0 0 Z " fill="#4997C7" transform="translate(279,264)"/>
<path d="M0 0 C0.66 0.33 1.32 0.66 2 1 C0.31326082 5.49797113 -1.81673892 9.72886302 -4 14 C-5.2277183 10.31684509 -4.6026666 9.37044582 -3.125 5.875 C-2.75632813 4.98554688 -2.38765625 4.09609375 -2.0078125 3.1796875 C-1 1 -1 1 0 0 Z " fill="#5699C3" transform="translate(249,244)"/>
<path d="M0 0 C3.3 0 6.6 0 10 0 C10.33 0.99 10.66 1.98 11 3 C5.04296875 3.29296875 5.04296875 3.29296875 3 3 C2.01 2.01 1.02 1.02 0 0 Z " fill="#4794C8" transform="translate(221,134)"/>
<path d="M0 0 C0.99 0.33 1.98 0.66 3 1 C2.01 2.1446875 2.01 2.1446875 1 3.3125 C-1.29850538 5.84277939 -1.29850538 5.84277939 -1 9 C-0.34 9.33 0.32 9.66 1 10 C0.67 11.32 0.34 12.64 0 14 C-1.95188553 12.12618989 -2.98156312 10.77742178 -3.046875 8.0234375 C-2.4375 2.4375 -2.4375 2.4375 0 0 Z " fill="#469AD5" transform="translate(147,523)"/>
<path d="M0 0 C0.66 0 1.32 0 2 0 C2.90413673 3.83724172 3.10576898 7.37502274 3.0625 11.3125 C3.05347656 12.38113281 3.04445313 13.44976562 3.03515625 14.55078125 C3.02355469 15.35902344 3.01195312 16.16726562 3 17 C2.67 17 2.34 17 2 17 C1.90912109 16.04287109 1.90912109 16.04287109 1.81640625 15.06640625 C1.73261719 14.24011719 1.64882813 13.41382813 1.5625 12.5625 C1.48128906 11.73878906 1.40007812 10.91507813 1.31640625 10.06640625 C1.21069185 8.01337975 1.21069185 8.01337975 0 7 C-0.04092937 4.66702567 -0.04241723 2.33294775 0 0 Z " fill="#5195C2" transform="translate(463,192)"/>
<path d="M0 0 C1.32 0 2.64 0 4 0 C5.51953125 1.6796875 5.51953125 1.6796875 6.8125 3.875 C7.25207031 4.59429687 7.69164062 5.31359375 8.14453125 6.0546875 C8.42683594 6.69664062 8.70914063 7.33859375 9 8 C8.67 8.66 8.34 9.32 8 10 C6.66070495 8.71451591 5.32871357 7.42141845 4 6.125 C2.88625 5.04605469 2.88625 5.04605469 1.75 3.9453125 C0 2 0 2 0 0 Z " fill="#5498C5" transform="translate(205,478)"/>
<path d="M0 0 C0.33 0 0.66 0 1 0 C2.69832609 5.83799592 3.25287193 10.93107371 3 17 C2.67 17 2.34 17 2 17 C-0.44064587 11.35600642 -0.19289099 6.02248522 0 0 Z " fill="#4597CD" transform="translate(481,327)"/>
<path d="M0 0 C1 2 1 2 -0.125 5.4375 C-1.68880731 8.92879075 -3.479691 10.38256073 -7 12 C-5.80100302 8.9168649 -4.52299523 5.93720508 -3 3 C-2.34 3 -1.68 3 -1 3 C-0.67 2.01 -0.34 1.02 0 0 Z " fill="#479BD4" transform="translate(198,237)"/>
<path d="M0 0 C2.9719385 1.12451727 5.33440687 2.22293791 8 4 C7.67 5.32 7.34 6.64 7 8 C6.67 7.34 6.34 6.68 6 6 C5.175 5.525625 4.35 5.05125 3.5 4.5625 C1 3 1 3 0 0 Z " fill="#539DCE" transform="translate(201,601)"/>
<path d="M0 0 C0.33 1.32 0.66 2.64 1 4 C0.01 4.66 -0.98 5.32 -2 6 C-3.20450304 8.55183404 -3.20450304 8.55183404 -4 11 C-4.66 11 -5.32 11 -6 11 C-6 10.01 -6 9.02 -6 8 C-5.34 8 -4.68 8 -4 8 C-3.8453125 7.13375 -3.8453125 7.13375 -3.6875 6.25 C-2.90207202 3.67950842 -1.69495803 2.06342716 0 0 Z " fill="#449AD7" transform="translate(331,551)"/>
<path d="M0 0 C0.33 0 0.66 0 1 0 C1.33 4.62 1.66 9.24 2 14 C1.01 13.67 0.02 13.34 -1 13 C-0.67 8.71 -0.34 4.42 0 0 Z " fill="#4F99CC" transform="translate(621,224)"/>
<path d="M0 0 C3.01657791 0.14030595 5.23841273 0.29351465 7.51171875 2.40234375 C8.73256066 3.88904235 9.87246522 5.44134898 11 7 C9.68 6.67 8.36 6.34 7 6 C7 5.34 7 4.68 7 4 C6.1028125 3.566875 6.1028125 3.566875 5.1875 3.125 C3 2 3 2 0 0 Z " fill="#4C96BF" transform="translate(304,173)"/>
<path d="M0 0 C4.31392226 0.4793247 6.16569547 1.7457985 9 5 C8.67 5.66 8.34 6.32 8 7 C6.66382648 6.02471263 5.3311249 5.04466681 4 4.0625 C3.2575 3.51722656 2.515 2.97195313 1.75 2.41015625 C1.1725 1.94480469 0.595 1.47945313 0 1 C0 0.67 0 0.34 0 0 Z " fill="#589DC5" transform="translate(604,296)"/>
<path d="M0 0 C3.82097239 0.53069061 6.06171403 1.49701566 9 4 C8.01 4.33 7.02 4.66 6 5 C2.8125 3.125 2.8125 3.125 0 1 C0 0.67 0 0.34 0 0 Z " fill="#4C94C2" transform="translate(256,145)"/>
<path d="M0 0 C2.38564077 0.57584432 4.66682784 1.22227595 7 2 C7 4.31 7 6.62 7 9 C6.6596875 8.1646875 6.6596875 8.1646875 6.3125 7.3125 C4.64103234 4.36753316 2.44723648 2.31843456 0 0 Z " fill="#5C9DC1" transform="translate(534,245)"/>
<path d="M0 0 C1.65 0 3.3 0 5 0 C6.0625 1.8125 6.0625 1.8125 7 4 C6.67 4.99 6.34 5.98 6 7 C5.38125 6.21625 4.7625 5.4325 4.125 4.625 C2.10141339 2.03162353 2.10141339 2.03162353 0 0 Z " fill="#599BC6" transform="translate(268,236)"/>
<path d="M0 0 C3.36591866 1.44253657 5.51047079 3.33264727 8 6 C7.67 6.66 7.34 7.32 7 8 C5.8274869 7.04882866 4.66212985 6.08882991 3.5 5.125 C2.8503125 4.59132813 2.200625 4.05765625 1.53125 3.5078125 C1.0259375 3.01023437 0.520625 2.51265625 0 2 C0 1.34 0 0.68 0 0 Z " fill="#4D96C0" transform="translate(477,539)"/>
<path d="M0 0 C0.33 0 0.66 0 1 0 C0.44687265 4.02992782 -0.1558062 8.02022924 -1 12 C-1.33 12 -1.66 12 -2 12 C-2.28571429 3.42857143 -2.28571429 3.42857143 0 0 Z " fill="#4B9AD1" transform="translate(172,291)"/>
<path d="M0 0 C4.875 4.625 4.875 4.625 6 8 C5.01 8.495 5.01 8.495 4 9 C4 8.01 4 7.02 4 6 C3.01 5.67 2.02 5.34 1 5 C0.67 3.35 0.34 1.7 0 0 Z " fill="#5A9AC8" transform="translate(623,238)"/>
</svg>
